<svg width="223" height="167" viewBox="0 0 223 167" fill="none" xmlns="http://www.w3.org/2000/svg">
<path d="M128.375 20.625C128.375 31.0313 121.175 40.7625 111.5 43.125C101.825 40.7625 94.625 31.0313 94.625 20.625V9.375L111.5 1.875L128.375 9.375V20.625ZM111.5 39.375C118.531 37.5 124.625 29.1375 124.625 21.0375V11.8125L111.5 5.9625L98.375 11.8125V21.0375C98.375 29.1375 104.469 37.5 111.5 39.375ZM107.75 31.875L100.25 24.375L102.894 21.7313L107.75 26.5688L120.106 14.2125L122.75 16.875" fill="#501B1F"/>
<path d="M62.8167 90.2645C61.1944 90.2645 59.819 89.9207 58.6905 89.233C57.562 88.5276 56.7068 87.5401 56.1249 86.2706C55.543 85.0009 55.252 83.5197 55.252 81.8269V80.1606C55.252 78.4678 55.5077 76.9954 56.0191 75.7434C56.5481 74.4739 57.3327 73.4952 58.3731 72.8075C59.4135 72.1022 60.7183 71.7495 62.2877 71.7495C63.6278 71.7495 64.7476 72.014 65.6469 72.543C66.5462 73.0544 67.2074 73.7421 67.6306 74.6061C68.0714 75.4525 68.2566 76.3782 68.1861 77.3833L65.0914 78.1504C65.2677 76.3871 65.0826 75.0381 64.536 74.1036C64.007 73.1514 63.2135 72.6752 62.1555 72.6752C61.0269 72.6752 60.1541 73.1514 59.5369 74.1036C58.9374 75.0557 58.6376 76.6339 58.6376 78.8381V83.1495C58.6376 85.336 58.9815 86.9142 59.6692 87.884C60.3569 88.8538 61.406 89.3388 62.8167 89.3388C63.3986 89.3388 63.9364 89.233 64.4302 89.0214C64.9415 88.8098 65.3647 88.4483 65.6998 87.9369C66.0524 87.4079 66.2728 86.6673 66.361 85.7151L68.2654 86.2176C68.0185 87.2051 67.6218 87.9986 67.0752 88.5981C66.5285 89.1977 65.8849 89.6297 65.1443 89.8942C64.4213 90.1411 63.6455 90.2645 62.8167 90.2645ZM83.1483 86.8525C82.8309 88.0868 82.2402 88.9684 81.3761 89.4974C80.5121 90.0088 79.507 90.2645 78.3608 90.2645C76.2448 90.2645 74.6578 89.6561 73.5998 88.4394C72.5418 87.2051 72.0128 85.574 72.0128 83.5462V83.0172C72.0128 80.9894 72.5066 79.3671 73.494 78.1504C74.4991 76.9337 75.9451 76.3254 77.8318 76.3254C78.8898 76.3254 79.8244 76.5369 80.6355 76.9601C81.4643 77.3657 82.1079 77.9564 82.5664 78.7323C83.0425 79.5082 83.2805 80.4515 83.2805 81.5625C83.2805 81.8269 83.2629 82.1091 83.2276 82.4089C83.21 82.7086 83.1659 83.0084 83.0954 83.3081H75.2662V84.0752C75.2662 85.9443 75.5307 87.2933 76.0597 88.1221C76.5887 88.9332 77.4439 89.3388 78.6253 89.3388C79.3836 89.3388 80.0272 89.1183 80.5562 88.6775C81.0852 88.219 81.385 87.452 81.4555 86.3763L83.1483 86.8525ZM77.8318 77.2511C76.9678 77.2511 76.3242 77.6479 75.901 78.4414C75.4778 79.2349 75.2662 80.5485 75.2662 82.3824H80.0536C80.1242 82.0297 80.1683 81.7035 80.1859 81.4037C80.2212 81.0863 80.2388 80.7954 80.2388 80.5309C80.2388 79.4024 80.0184 78.5736 79.5775 78.0446C79.1367 77.5156 78.5548 77.2511 77.8318 77.2511ZM86.5417 77.3304V76.5898H91.4614V78.7588C92.5371 77.1365 93.8155 76.3254 95.2967 76.3254C95.8433 76.3254 96.3723 76.5017 96.8837 76.8544C97.3951 77.1894 97.8183 77.8242 98.1533 78.7588L95.7992 80.0284C95.5524 79.3054 95.2614 78.8205 94.9264 78.5736C94.609 78.3091 94.2651 78.1768 93.8948 78.1768C93.5069 78.1768 93.1278 78.3003 92.7575 78.5471C92.3872 78.794 92.0081 79.2525 91.6201 79.9226V87.7782C91.6201 88.3777 91.6466 88.7392 91.6995 88.8627C91.7524 88.9685 91.9199 89.039 92.202 89.0743L94.1858 89.2594V90H86.5417V89.2594L87.9965 89.0743C88.2786 89.039 88.4461 88.9685 88.499 88.8627C88.5519 88.7392 88.5784 88.3777 88.5784 87.7782V78.8117C88.5784 78.2121 88.5519 77.8594 88.499 77.7536C88.4461 77.6302 88.2786 77.5509 87.9965 77.5156L86.5417 77.3304ZM109.498 87.2492C109.269 88.3248 108.828 89.1007 108.176 89.5768C107.541 90.0353 106.765 90.2645 105.848 90.2645C104.913 90.2645 104.146 90.0617 103.547 89.6562C102.947 89.233 102.506 88.6775 102.224 87.9898C101.942 87.3021 101.801 86.5703 101.801 85.7944V78.8117C101.801 78.2121 101.775 77.8594 101.722 77.7536C101.669 77.6302 101.501 77.5509 101.219 77.5156L99.7645 77.3304V76.5898H101.801V73.5217L104.843 72.9133V76.5898H109.075V77.5156H104.843V86.3234C104.843 87.452 104.984 88.2367 105.266 88.6775C105.548 89.1007 105.91 89.3123 106.351 89.3123C106.809 89.3123 107.162 89.136 107.409 88.7833C107.673 88.4306 107.841 87.787 107.911 86.8525L109.498 87.2492ZM115.384 74.3151C114.837 74.3151 114.397 74.1476 114.062 73.8126C113.726 73.4599 113.559 73.0103 113.559 72.4636C113.559 71.917 113.726 71.4762 114.062 71.1411C114.397 70.8061 114.837 70.6386 115.384 70.6386C115.913 70.6386 116.354 70.8061 116.707 71.1411C117.059 71.4762 117.236 71.917 117.236 72.4636C117.236 73.0103 117.059 73.4599 116.707 73.8126C116.354 74.1476 115.913 74.3151 115.384 74.3151ZM111.84 77.3304V76.5898H116.918V87.7782C116.918 88.3777 116.945 88.7392 116.997 88.8627C117.05 88.9685 117.218 89.039 117.5 89.0743L118.955 89.2594V90H111.84V89.2594L113.294 89.0743C113.577 89.039 113.744 88.9685 113.797 88.8627C113.85 88.7392 113.876 88.3777 113.876 87.7782V78.8117C113.876 78.2121 113.85 77.8594 113.797 77.7536C113.744 77.6302 113.577 77.5509 113.294 77.5156L111.84 77.3304ZM136.957 89.2594V90H129.842V89.2594L131.297 89.0743C131.579 89.039 131.746 88.9685 131.799 88.8627C131.852 88.7392 131.879 88.3777 131.879 87.7782V77.5156H126.377V87.7782C126.377 88.3777 126.404 88.7392 126.456 88.8627C126.509 88.9685 126.677 89.039 126.959 89.0743L128.414 89.2594V90H121.299V89.2594L122.753 89.0743C123.036 89.039 123.203 88.9685 123.256 88.8627C123.309 88.7392 123.335 88.3777 123.335 87.7782V78.8117C123.335 78.2121 123.309 77.8594 123.256 77.7536C123.203 77.6302 123.036 77.5509 122.753 77.5156L121.299 77.3304V76.5898H123.335V75.6906C123.335 74.756 123.52 73.8655 123.891 73.0191C124.261 72.1727 124.869 71.485 125.716 70.956C126.58 70.427 127.744 70.1625 129.207 70.1625C130.442 70.1625 131.482 70.3565 132.328 70.7444C133.175 71.1147 133.801 71.6084 134.206 72.2256C134.612 72.8251 134.753 73.4864 134.629 74.2094L131.72 74.6325C131.914 73.3806 131.773 72.4813 131.297 71.9347C130.838 71.3704 130.142 71.0882 129.207 71.0882C128.643 71.0882 128.14 71.2117 127.7 71.4585C127.276 71.6878 126.95 72.1022 126.721 72.7017C126.492 73.2836 126.377 74.1035 126.377 75.1615V76.5898H134.92V87.7782C134.92 88.3777 134.947 88.7392 135 88.8627C135.053 88.9685 135.22 89.039 135.502 89.0743L136.957 89.2594ZM151.236 86.8525C150.919 88.0868 150.328 88.9684 149.464 89.4974C148.6 90.0088 147.595 90.2645 146.449 90.2645C144.333 90.2645 142.746 89.6561 141.688 88.4394C140.63 87.2051 140.101 85.574 140.101 83.5462V83.0172C140.101 80.9894 140.595 79.3671 141.582 78.1504C142.587 76.9337 144.033 76.3254 145.92 76.3254C146.978 76.3254 147.912 76.5369 148.724 76.9601C149.552 77.3657 150.196 77.9564 150.654 78.7323C151.131 79.5082 151.369 80.4515 151.369 81.5625C151.369 81.8269 151.351 82.1091 151.316 82.4089C151.298 82.7086 151.254 83.0084 151.183 83.3081H143.354V84.0752C143.354 85.9443 143.619 87.2933 144.148 88.1221C144.677 88.9332 145.532 89.3388 146.713 89.3388C147.472 89.3388 148.115 89.1183 148.644 88.6775C149.173 88.219 149.473 87.452 149.544 86.3763L151.236 86.8525ZM145.92 77.2511C145.056 77.2511 144.412 77.6479 143.989 78.4414C143.566 79.2349 143.354 80.5485 143.354 82.3824H148.142C148.212 82.0297 148.256 81.7035 148.274 81.4037C148.309 81.0863 148.327 80.7954 148.327 80.5309C148.327 79.4024 148.106 78.5736 147.666 78.0446C147.225 77.5156 146.643 77.2511 145.92 77.2511ZM169.072 89.2594V90H164.152V87.8046C163.658 88.6158 163.103 89.233 162.485 89.6562C161.886 90.0617 161.172 90.2645 160.343 90.2645C158.862 90.2645 157.68 89.6826 156.799 88.5188C155.935 87.3374 155.503 85.6886 155.503 83.5726V83.0436C155.503 80.9982 156.005 79.3671 157.01 78.1504C158.033 76.9337 159.426 76.3254 161.189 76.3254C162.247 76.3254 163.182 76.5899 163.993 77.1189V72.6488C163.993 72.0493 163.967 71.6966 163.914 71.5908C163.861 71.4674 163.693 71.388 163.411 71.3527L161.956 71.1676V70.427H167.035V87.7782C167.035 88.3777 167.061 88.7392 167.114 88.8627C167.167 88.9685 167.335 89.039 167.617 89.0743L169.072 89.2594ZM158.756 84.3661C158.756 86.006 158.959 87.2051 159.364 87.9633C159.77 88.7216 160.325 89.1007 161.031 89.1007C161.472 89.1007 161.93 88.9244 162.406 88.5717C162.9 88.2014 163.429 87.4608 163.993 86.3499V78.362C163.323 77.6919 162.503 77.3569 161.533 77.3569C160.563 77.3569 159.858 77.7977 159.417 78.6794C158.976 79.5434 158.756 80.7337 158.756 82.2502V84.3661Z" fill="#180A0B"/>
<path d="M16.935 132.185C15.3729 132.185 14.1798 131.662 13.3557 130.616C12.5439 129.571 12.138 128.169 12.138 126.41V125.026C12.138 123.87 12.3102 122.861 12.6546 122C13.0113 121.139 13.5341 120.469 14.2229 119.989C14.9117 119.509 15.7542 119.269 16.7505 119.269C17.673 119.269 18.4356 119.454 19.0383 119.823C19.641 120.18 20.0777 120.653 20.3483 121.244C20.6189 121.822 20.705 122.455 20.6066 123.144L19.0199 123.531C19.1552 122.351 19.0199 121.447 18.614 120.819C18.2081 120.18 17.5869 119.86 16.7505 119.86C15.8157 119.86 15.1023 120.192 14.6103 120.856C14.1306 121.52 13.8908 122.603 13.8908 124.103V127.332C13.8908 128.845 14.1491 129.934 14.6657 130.598C15.1823 131.262 15.951 131.594 16.9719 131.594C17.3778 131.594 17.7653 131.526 18.1343 131.391C18.5033 131.244 18.8169 130.998 19.0752 130.653C19.3335 130.309 19.4934 129.829 19.5549 129.214L20.6988 129.509C20.4282 130.493 19.9485 131.188 19.2597 131.594C18.5832 131.988 17.8083 132.185 16.935 132.185ZM30.9392 129.897C30.7178 130.733 30.2996 131.323 29.6846 131.668C29.0819 132.012 28.4115 132.185 27.6735 132.185C26.3082 132.185 25.2873 131.772 24.6108 130.948C23.9343 130.112 23.5961 128.999 23.5961 127.609V127.24C23.5961 125.862 23.922 124.761 24.5739 123.937C25.2258 123.101 26.1729 122.683 27.4152 122.683C28.0794 122.683 28.6821 122.818 29.2233 123.089C29.7768 123.359 30.2135 123.759 30.5333 124.288C30.8654 124.817 31.0314 125.475 31.0314 126.262C31.0314 126.631 30.9945 127.018 30.9207 127.424H25.2566V127.978C25.2566 129.269 25.4534 130.198 25.847 130.764C26.2529 131.317 26.9048 131.594 27.8027 131.594C28.3685 131.594 28.8359 131.446 29.2049 131.151C29.5862 130.856 29.8383 130.346 29.9613 129.62L30.9392 129.897ZM27.4152 123.273C26.6895 123.273 26.1483 123.55 25.7916 124.103C25.4349 124.657 25.2566 125.567 25.2566 126.834H29.4078V126.779C29.4324 126.619 29.4509 126.465 29.4632 126.317C29.4755 126.157 29.4816 126.016 29.4816 125.893C29.4816 124.971 29.291 124.306 28.9097 123.9C28.5284 123.482 28.0302 123.273 27.4152 123.273ZM33.6954 123.365V122.867H36.5367V124.343C36.9672 123.765 37.3977 123.347 37.8282 123.089C38.271 122.818 38.72 122.683 39.1751 122.683C39.5687 122.683 39.9377 122.8 40.2821 123.033C40.6265 123.267 40.9155 123.642 41.1492 124.159L39.95 124.878C39.7655 124.435 39.5564 124.128 39.3227 123.956C39.089 123.784 38.8307 123.697 38.5478 123.697C38.2403 123.697 37.9328 123.796 37.6253 123.993C37.3301 124.189 36.998 124.558 36.629 125.1V130.506C36.629 130.936 36.6474 131.194 36.6843 131.28C36.7212 131.354 36.8381 131.397 37.0349 131.41L38.4186 131.52V132H33.6954V131.52L34.7102 131.41C34.907 131.385 35.0238 131.336 35.0607 131.262C35.0976 131.188 35.1161 130.936 35.1161 130.506V124.362C35.1161 123.931 35.0976 123.679 35.0607 123.605C35.0238 123.531 34.907 123.482 34.7102 123.458L33.6954 123.365ZM48.8143 130.118C48.6298 130.831 48.3408 131.354 47.9472 131.686C47.5536 132.018 47.0493 132.185 46.4343 132.185C45.8439 132.185 45.3642 132.055 44.9952 131.797C44.6262 131.526 44.3556 131.176 44.1834 130.745C44.0112 130.315 43.9251 129.866 43.9251 129.399V124.362C43.9251 123.931 43.9066 123.679 43.8697 123.605C43.8451 123.531 43.7283 123.482 43.5192 123.458L42.5044 123.365V122.867H43.9251V120.45L45.438 120.137V122.867H48.4453V123.458H45.438V129.546C45.438 130.321 45.5425 130.856 45.7516 131.151C45.973 131.446 46.2621 131.594 46.6188 131.594C46.9755 131.594 47.2461 131.459 47.4306 131.188C47.6274 130.918 47.7688 130.475 47.8549 129.86L48.8143 130.118ZM52.9419 120.801C52.6467 120.801 52.4007 120.709 52.2039 120.524C52.0194 120.327 51.9272 120.075 51.9272 119.768C51.9272 119.472 52.0194 119.233 52.2039 119.048C52.4007 118.864 52.6467 118.771 52.9419 118.771C53.2371 118.771 53.477 118.864 53.6615 119.048C53.8583 119.233 53.9567 119.472 53.9567 119.768C53.9567 120.075 53.8583 120.327 53.6615 120.524C53.477 120.709 53.2371 120.801 52.9419 120.801ZM50.7833 123.365V122.867H53.7168V130.506C53.7168 130.936 53.7353 131.188 53.7722 131.262C53.8091 131.336 53.9259 131.385 54.1227 131.41L55.1375 131.52V132H50.7833V131.52L51.798 131.41C51.9948 131.385 52.1117 131.336 52.1486 131.262C52.1855 131.188 52.2039 130.936 52.2039 130.506V124.362C52.2039 123.931 52.1855 123.679 52.1486 123.605C52.1117 123.531 51.9948 123.482 51.798 123.458L50.7833 123.365ZM67.3851 131.52V132H63.0309V131.52L64.0457 131.41C64.2425 131.385 64.3593 131.336 64.3962 131.262C64.4331 131.188 64.4516 130.936 64.4516 130.506V123.458H60.1527V130.506C60.1527 130.936 60.1712 131.188 60.2081 131.262C60.245 131.336 60.3618 131.385 60.5586 131.41L61.5734 131.52V132H57.2192V131.52L58.2339 131.41C58.4307 131.385 58.5476 131.336 58.5845 131.262C58.6214 131.188 58.6398 130.936 58.6398 130.506V124.362C58.6398 123.931 58.6214 123.679 58.5845 123.605C58.5599 123.531 58.443 123.482 58.2339 123.458L57.2192 123.365V122.867H58.6398V122.129C58.6398 121.44 58.7567 120.795 58.9904 120.192C59.2364 119.589 59.6361 119.103 60.1896 118.734C60.7554 118.353 61.5119 118.162 62.459 118.162C63.2462 118.162 63.9042 118.298 64.4331 118.568C64.9743 118.827 65.3679 119.183 65.6139 119.638C65.8599 120.081 65.9337 120.579 65.8353 121.133L64.3962 121.336C64.6299 119.614 63.9842 118.753 62.459 118.753C62.0039 118.753 61.6041 118.845 61.2597 119.03C60.9153 119.202 60.6447 119.515 60.4479 119.971C60.2511 120.413 60.1527 121.047 60.1527 121.871V122.867H65.9645V130.506C65.9645 130.936 65.9829 131.188 66.0198 131.262C66.0567 131.336 66.1736 131.385 66.3704 131.41L67.3851 131.52ZM77.3524 129.897C77.131 130.733 76.7128 131.323 76.0978 131.668C75.4951 132.012 74.8248 132.185 74.0868 132.185C72.7215 132.185 71.7006 131.772 71.0241 130.948C70.3476 130.112 70.0093 128.999 70.0093 127.609V127.24C70.0093 125.862 70.3353 124.761 70.9872 123.937C71.6391 123.101 72.5862 122.683 73.8285 122.683C74.4927 122.683 75.0954 122.818 75.6366 123.089C76.1901 123.359 76.6267 123.759 76.9465 124.288C77.2786 124.817 77.4447 125.475 77.4447 126.262C77.4447 126.631 77.4078 127.018 77.334 127.424H71.6698V127.978C71.6698 129.269 71.8666 130.198 72.2602 130.764C72.6661 131.317 73.318 131.594 74.2159 131.594C74.7817 131.594 75.2491 131.446 75.6181 131.151C75.9994 130.856 76.2516 130.346 76.3746 129.62L77.3524 129.897ZM73.8285 123.273C73.1028 123.273 72.5616 123.55 72.2049 124.103C71.8482 124.657 71.6698 125.567 71.6698 126.834H75.8211V126.779C75.8457 126.619 75.8641 126.465 75.8764 126.317C75.8887 126.157 75.8949 126.016 75.8949 125.893C75.8949 124.971 75.7042 124.306 75.3229 123.9C74.9416 123.482 74.4435 123.273 73.8285 123.273ZM89.6473 131.539V132H86.806V130.542C86.4247 131.108 86.0004 131.526 85.533 131.797C85.0779 132.055 84.5674 132.185 84.0016 132.185C82.9438 132.185 82.1197 131.791 81.5293 131.004C80.9512 130.204 80.6622 129.079 80.6622 127.627V127.258C80.6622 125.868 81.0004 124.761 81.6769 123.937C82.3657 123.101 83.3067 122.683 84.4998 122.683C85.3731 122.683 86.1111 122.953 86.7138 123.495V119.841C86.7138 119.411 86.6953 119.159 86.6584 119.085C86.6215 119.011 86.5047 118.962 86.3079 118.937L85.2931 118.845V118.347H88.2267V130.506C88.2267 130.936 88.2451 131.188 88.282 131.262C88.3189 131.336 88.4358 131.385 88.6326 131.41L89.6473 131.539ZM82.3227 128.181C82.3227 129.337 82.4887 130.186 82.8208 130.727C83.1652 131.268 83.6388 131.539 84.2415 131.539C84.6351 131.539 85.041 131.416 85.4592 131.17C85.8774 130.924 86.2956 130.426 86.7138 129.675V124.399C86.1726 123.673 85.4653 123.31 84.592 123.31C83.8048 123.31 83.2267 123.611 82.8577 124.214C82.501 124.817 82.3227 125.647 82.3227 126.705V128.181ZM111.153 131.52V132H106.707V131.52L107.722 131.41C107.919 131.385 108.035 131.336 108.072 131.262C108.109 131.176 108.128 130.924 108.128 130.506V120.506L104.29 130.524H103.035L99.1794 120.506V130.506C99.1794 130.924 99.1978 131.176 99.2347 131.262C99.2716 131.336 99.3885 131.385 99.5853 131.41L100.6 131.52V132H97.0761V131.52L98.0908 131.41C98.2876 131.385 98.4045 131.336 98.4414 131.262C98.4783 131.176 98.4967 130.924 98.4967 130.506V120.948C98.4967 120.53 98.4783 120.284 98.4414 120.21C98.4045 120.124 98.2876 120.069 98.0908 120.044L97.0761 119.952V119.454H100.452L104.161 129.14L107.869 119.454H111.153V119.952L110.139 120.044C109.942 120.069 109.825 120.124 109.788 120.21C109.751 120.284 109.733 120.53 109.733 120.948V130.506C109.733 130.924 109.751 131.176 109.788 131.262C109.825 131.336 109.942 131.385 110.139 131.41L111.153 131.52ZM121.234 132.129C120.274 132.129 119.708 131.686 119.536 130.801C119.106 131.293 118.632 131.649 118.116 131.871C117.599 132.08 117.089 132.185 116.584 132.185C115.723 132.185 115.09 131.945 114.684 131.465C114.278 130.985 114.075 130.407 114.075 129.731C114.075 129.005 114.321 128.433 114.813 128.015C115.317 127.584 116.184 127.369 117.414 127.369H119.499V125.875C119.499 124.891 119.327 124.214 118.983 123.845C118.651 123.464 118.196 123.273 117.617 123.273C117.248 123.273 116.916 123.347 116.621 123.495C116.326 123.642 116.111 123.913 115.975 124.306C115.852 124.688 115.84 125.247 115.938 125.985L114.481 125.764C114.419 125.186 114.493 124.669 114.702 124.214C114.924 123.747 115.28 123.378 115.772 123.107C116.277 122.824 116.904 122.683 117.654 122.683C118.552 122.683 119.241 122.836 119.721 123.144C120.2 123.439 120.533 123.827 120.717 124.306C120.914 124.786 121.012 125.309 121.012 125.875V130.026C121.012 130.653 121.08 131.047 121.215 131.207C121.363 131.367 121.523 131.446 121.695 131.446C121.806 131.446 121.922 131.422 122.045 131.373C122.168 131.311 122.304 131.219 122.451 131.096L122.783 131.557C122.599 131.717 122.378 131.852 122.119 131.963C121.873 132.074 121.578 132.129 121.234 132.129ZM117.101 131.41C117.445 131.41 117.814 131.317 118.208 131.133C118.614 130.936 119.044 130.549 119.499 129.97V127.959H117.617C116.929 127.959 116.424 128.101 116.105 128.384C115.797 128.654 115.643 129.079 115.643 129.657C115.643 130.21 115.76 130.641 115.994 130.948C116.24 131.256 116.609 131.41 117.101 131.41ZM124.518 123.365V122.867H127.36V124.343C127.79 123.765 128.221 123.347 128.651 123.089C129.094 122.818 129.543 122.683 129.998 122.683C130.392 122.683 130.761 122.8 131.105 123.033C131.449 123.267 131.739 123.642 131.972 124.159L130.773 124.878C130.588 124.435 130.379 124.128 130.146 123.956C129.912 123.784 129.654 123.697 129.371 123.697C129.063 123.697 128.756 123.796 128.448 123.993C128.153 124.189 127.821 124.558 127.452 125.1V130.506C127.452 130.936 127.47 131.194 127.507 131.28C127.544 131.354 127.661 131.397 127.858 131.41L129.242 131.52V132H124.518V131.52L125.533 131.41C125.73 131.385 125.847 131.336 125.884 131.262C125.921 131.188 125.939 130.936 125.939 130.506V124.362C125.939 123.931 125.921 123.679 125.884 123.605C125.847 123.531 125.73 123.482 125.533 123.458L124.518 123.365ZM133.221 118.845V118.347H136.155V127.793L139.642 124.251C139.999 123.894 140.189 123.679 140.214 123.605C140.239 123.531 140.146 123.482 139.937 123.458L138.996 123.365V122.867H142.557V123.365L141.616 123.458C141.506 123.47 141.413 123.495 141.339 123.531C141.266 123.556 141.167 123.624 141.044 123.734C140.934 123.833 140.755 124.005 140.509 124.251L138.48 126.299L141.192 130.616C141.352 130.862 141.469 131.041 141.542 131.151C141.629 131.25 141.708 131.317 141.782 131.354C141.856 131.379 141.954 131.397 142.077 131.41L143.037 131.52V132H140.251L137.447 127.351L136.155 128.661V130.506C136.155 130.936 136.173 131.188 136.21 131.262C136.247 131.336 136.364 131.385 136.561 131.41L137.576 131.52V132H133.221V131.52L134.236 131.41C134.433 131.385 134.55 131.336 134.587 131.262C134.624 131.188 134.642 130.936 134.642 130.506V119.841C134.642 119.411 134.624 119.159 134.587 119.085C134.55 119.011 134.433 118.962 134.236 118.937L133.221 118.845ZM152.421 129.897C152.199 130.733 151.781 131.323 151.166 131.668C150.564 132.012 149.893 132.185 149.155 132.185C147.79 132.185 146.769 131.772 146.093 130.948C145.416 130.112 145.078 128.999 145.078 127.609V127.24C145.078 125.862 145.404 124.761 146.056 123.937C146.708 123.101 147.655 122.683 148.897 122.683C149.561 122.683 150.164 122.818 150.705 123.089C151.259 123.359 151.695 123.759 152.015 124.288C152.347 124.817 152.513 125.475 152.513 126.262C152.513 126.631 152.476 127.018 152.402 127.424H146.738V127.978C146.738 129.269 146.935 130.198 147.329 130.764C147.735 131.317 148.386 131.594 149.284 131.594C149.85 131.594 150.318 131.446 150.687 131.151C151.068 130.856 151.32 130.346 151.443 129.62L152.421 129.897ZM148.897 123.273C148.171 123.273 147.63 123.55 147.273 124.103C146.917 124.657 146.738 125.567 146.738 126.834H150.89V126.779C150.914 126.619 150.933 126.465 150.945 126.317C150.957 126.157 150.963 126.016 150.963 125.893C150.963 124.971 150.773 124.306 150.391 123.9C150.01 123.482 149.512 123.273 148.897 123.273ZM161.266 130.118C161.081 130.831 160.792 131.354 160.398 131.686C160.005 132.018 159.501 132.185 158.886 132.185C158.295 132.185 157.815 132.055 157.446 131.797C157.077 131.526 156.807 131.176 156.635 130.745C156.462 130.315 156.376 129.866 156.376 129.399V124.362C156.376 123.931 156.358 123.679 156.321 123.605C156.296 123.531 156.18 123.482 155.97 123.458L154.956 123.365V122.867H156.376V120.45L157.889 120.137V122.867H160.897V123.458H157.889V129.546C157.889 130.321 157.994 130.856 158.203 131.151C158.424 131.446 158.713 131.594 159.07 131.594C159.427 131.594 159.697 131.459 159.882 131.188C160.079 130.918 160.22 130.475 160.306 129.86L161.266 130.118ZM163.105 123.347V122.867H165.947V124.343C166.316 123.765 166.728 123.347 167.183 123.089C167.65 122.818 168.167 122.683 168.733 122.683C169.79 122.683 170.608 123.082 171.187 123.882C171.777 124.681 172.072 125.801 172.072 127.24V127.609C172.072 129.011 171.734 130.124 171.057 130.948C170.381 131.772 169.44 132.185 168.235 132.185C167.374 132.185 166.642 131.92 166.039 131.391V134.435C166.039 134.854 166.057 135.1 166.094 135.173C166.131 135.26 166.248 135.315 166.445 135.339L167.829 135.432V135.93H163.105V135.432L164.12 135.339C164.317 135.315 164.434 135.26 164.471 135.173C164.508 135.1 164.526 134.854 164.526 134.435V124.362C164.526 123.931 164.508 123.679 164.471 123.605C164.434 123.531 164.317 123.482 164.12 123.458L163.105 123.347ZM168.493 123.347C168.112 123.347 167.712 123.47 167.294 123.716C166.888 123.962 166.469 124.46 166.039 125.21V130.487C166.568 131.213 167.269 131.576 168.142 131.576C168.942 131.576 169.52 131.274 169.877 130.672C170.233 130.057 170.412 129.22 170.412 128.162V126.686C170.412 125.53 170.246 124.688 169.913 124.159C169.581 123.618 169.108 123.347 168.493 123.347ZM174.73 118.845V118.347H177.664V130.506C177.664 130.936 177.682 131.188 177.719 131.262C177.756 131.336 177.873 131.385 178.07 131.41L179.085 131.52V132H174.73V131.52L175.745 131.41C175.942 131.385 176.059 131.336 176.096 131.262C176.133 131.188 176.151 130.936 176.151 130.506V119.841C176.151 119.411 176.133 119.159 176.096 119.085C176.059 119.011 175.942 118.962 175.745 118.937L174.73 118.845ZM188.789 132.129C187.829 132.129 187.264 131.686 187.091 130.801C186.661 131.293 186.187 131.649 185.671 131.871C185.154 132.08 184.644 132.185 184.139 132.185C183.278 132.185 182.645 131.945 182.239 131.465C181.833 130.985 181.63 130.407 181.63 129.731C181.63 129.005 181.876 128.433 182.368 128.015C182.872 127.584 183.74 127.369 184.97 127.369H187.054V125.875C187.054 124.891 186.882 124.214 186.538 123.845C186.206 123.464 185.751 123.273 185.173 123.273C184.804 123.273 184.471 123.347 184.176 123.495C183.881 123.642 183.666 123.913 183.53 124.306C183.407 124.688 183.395 125.247 183.494 125.985L182.036 125.764C181.975 125.186 182.048 124.669 182.257 124.214C182.479 123.747 182.836 123.378 183.328 123.107C183.832 122.824 184.459 122.683 185.209 122.683C186.107 122.683 186.796 122.836 187.276 123.144C187.756 123.439 188.088 123.827 188.272 124.306C188.469 124.786 188.567 125.309 188.567 125.875V130.026C188.567 130.653 188.635 131.047 188.77 131.207C188.918 131.367 189.078 131.446 189.25 131.446C189.361 131.446 189.478 131.422 189.601 131.373C189.724 131.311 189.859 131.219 190.006 131.096L190.339 131.557C190.154 131.717 189.933 131.852 189.674 131.963C189.428 132.074 189.133 132.129 188.789 132.129ZM184.656 131.41C185 131.41 185.369 131.317 185.763 131.133C186.169 130.936 186.599 130.549 187.054 129.97V127.959H185.173C184.484 127.959 183.979 128.101 183.66 128.384C183.352 128.654 183.198 129.079 183.198 129.657C183.198 130.21 183.315 130.641 183.549 130.948C183.795 131.256 184.164 131.41 184.656 131.41ZM196.391 123.273C195.714 123.273 195.185 123.556 194.804 124.122C194.435 124.675 194.251 125.592 194.251 126.871V127.978C194.251 129.269 194.435 130.198 194.804 130.764C195.185 131.317 195.8 131.594 196.649 131.594C197.227 131.594 197.695 131.446 198.051 131.151C198.408 130.856 198.648 130.346 198.771 129.62L199.749 129.897C199.527 130.733 199.121 131.323 198.531 131.668C197.941 132.012 197.283 132.185 196.557 132.185C195.228 132.185 194.232 131.772 193.568 130.948C192.916 130.112 192.59 128.999 192.59 127.609V127.24C192.59 125.862 192.916 124.761 193.568 123.937C194.22 123.101 195.161 122.683 196.391 122.683C197.178 122.683 197.83 122.836 198.347 123.144C198.875 123.451 199.251 123.87 199.472 124.399C199.693 124.915 199.755 125.487 199.656 126.114L198.199 126.336C198.334 125.352 198.242 124.595 197.922 124.066C197.615 123.538 197.104 123.273 196.391 123.273ZM210.117 129.897C209.895 130.733 209.477 131.323 208.862 131.668C208.259 132.012 207.589 132.185 206.851 132.185C205.486 132.185 204.465 131.772 203.788 130.948C203.112 130.112 202.774 128.999 202.774 127.609V127.24C202.774 125.862 203.1 124.761 203.752 123.937C204.403 123.101 205.351 122.683 206.593 122.683C207.257 122.683 207.86 122.818 208.401 123.089C208.954 123.359 209.391 123.759 209.711 124.288C210.043 124.817 210.209 125.475 210.209 126.262C210.209 126.631 210.172 127.018 210.098 127.424H204.434V127.978C204.434 129.269 204.631 130.198 205.025 130.764C205.43 131.317 206.082 131.594 206.98 131.594C207.546 131.594 208.013 131.446 208.382 131.151C208.764 130.856 209.016 130.346 209.139 129.62L210.117 129.897ZM206.593 123.273C205.867 123.273 205.326 123.55 204.969 124.103C204.613 124.657 204.434 125.567 204.434 126.834H208.585V126.779C208.61 126.619 208.628 126.465 208.641 126.317C208.653 126.157 208.659 126.016 208.659 125.893C208.659 124.971 208.469 124.306 208.087 123.9C207.706 123.482 207.208 123.273 206.593 123.273ZM67.2939 150.273L66.1685 149.996C64.631 149.603 63.8622 148.717 63.8622 147.34C63.8622 146.884 63.9668 146.454 64.1759 146.048C64.385 145.642 64.7171 145.316 65.1722 145.07C65.6396 144.812 66.2361 144.683 66.9618 144.683C67.7736 144.683 68.4255 144.818 68.9175 145.089C69.4095 145.359 69.7539 145.71 69.9507 146.14C70.1475 146.571 70.209 147.038 70.1352 147.542L68.6961 147.801C68.8437 147.001 68.7576 146.38 68.4378 145.937C68.1303 145.495 67.6199 145.273 66.9065 145.273C66.353 145.273 65.9102 145.415 65.5781 145.697C65.246 145.968 65.0799 146.368 65.0799 146.897C65.0799 147.29 65.2029 147.641 65.4489 147.948C65.6949 148.244 66.107 148.465 66.6851 148.613L67.8474 148.889C68.6592 149.086 69.2865 149.4 69.7293 149.83C70.1844 150.261 70.412 150.827 70.412 151.528C70.412 152.315 70.1229 152.954 69.5448 153.446C68.979 153.938 68.1672 154.185 67.1094 154.185C66.6051 154.185 66.1131 154.111 65.6334 153.963C65.166 153.803 64.754 153.557 64.3973 153.225C64.0529 152.881 63.8007 152.438 63.6408 151.897L64.674 151.528C64.8093 152.303 65.1045 152.844 65.5596 153.151C66.0147 153.459 66.5375 153.613 67.1279 153.613C67.4723 153.613 67.7982 153.557 68.1057 153.446C68.4255 153.336 68.6838 153.164 68.8806 152.93C69.0774 152.684 69.1758 152.37 69.1758 151.989C69.1758 151.595 69.0405 151.257 68.7699 150.974C68.4993 150.691 68.0073 150.458 67.2939 150.273ZM75.2207 142.801C74.9255 142.801 74.6795 142.709 74.4827 142.524C74.2982 142.327 74.2059 142.075 74.2059 141.768C74.2059 141.472 74.2982 141.233 74.4827 141.048C74.6795 140.864 74.9255 140.771 75.2207 140.771C75.5159 140.771 75.7557 140.864 75.9402 141.048C76.137 141.233 76.2354 141.472 76.2354 141.768C76.2354 142.075 76.137 142.327 75.9402 142.524C75.7557 142.709 75.5159 142.801 75.2207 142.801ZM73.062 145.365V144.867H75.9956V152.506C75.9956 152.936 76.014 153.188 76.0509 153.262C76.0878 153.336 76.2047 153.385 76.4015 153.41L77.4162 153.52V154H73.062V153.52L74.0768 153.41C74.2736 153.385 74.3904 153.336 74.4273 153.262C74.4642 153.188 74.4827 152.936 74.4827 152.506V146.362C74.4827 145.931 74.4642 145.679 74.4273 145.605C74.3904 145.531 74.2736 145.482 74.0768 145.458L73.062 145.365ZM89.8114 153.52V154H85.4572V153.52L86.472 153.41C86.6688 153.385 86.7856 153.336 86.8225 153.262C86.8594 153.188 86.8779 152.936 86.8779 152.506V147.911C86.8779 147.001 86.7303 146.362 86.4351 145.993C86.1399 145.611 85.7155 145.421 85.162 145.421C84.7561 145.421 84.3072 145.544 83.8152 145.79C83.3232 146.036 82.8619 146.515 82.4314 147.229V152.506C82.4314 152.936 82.4499 153.188 82.4868 153.262C82.5237 153.336 82.6405 153.385 82.8373 153.41L83.8521 153.52V154H79.4979V153.52L80.5126 153.41C80.7094 153.385 80.8263 153.336 80.8632 153.262C80.9001 153.188 80.9185 152.936 80.9185 152.506V146.362C80.9185 145.931 80.9001 145.679 80.8632 145.605C80.8263 145.531 80.7094 145.482 80.5126 145.458L79.4979 145.365V144.867H82.3392V146.362C82.782 145.771 83.2801 145.347 83.8336 145.089C84.3994 144.818 84.9652 144.683 85.531 144.683C86.4412 144.683 87.1423 144.966 87.6343 145.531C88.1386 146.085 88.3908 146.872 88.3908 147.893V152.506C88.3908 152.936 88.4092 153.188 88.4461 153.262C88.483 153.336 88.5999 153.385 88.7967 153.41L89.8114 153.52ZM96.1248 145.273C95.4483 145.273 94.9194 145.556 94.5381 146.122C94.1691 146.675 93.9846 147.592 93.9846 148.871V149.978C93.9846 151.269 94.1691 152.198 94.5381 152.764C94.9194 153.317 95.5344 153.594 96.3831 153.594C96.9612 153.594 97.4286 153.446 97.7853 153.151C98.142 152.856 98.3819 152.346 98.5049 151.62L99.4827 151.897C99.2613 152.733 98.8554 153.323 98.265 153.668C97.6746 154.012 97.0166 154.185 96.2909 154.185C94.9625 154.185 93.9662 153.772 93.302 152.948C92.6501 152.112 92.3241 150.999 92.3241 149.609V149.24C92.3241 147.862 92.6501 146.761 93.302 145.937C93.9539 145.101 94.8948 144.683 96.1248 144.683C96.912 144.683 97.5639 144.836 98.0805 145.144C98.6094 145.451 98.9846 145.87 99.206 146.399C99.4274 146.915 99.4889 147.487 99.3905 148.114L97.9329 148.336C98.0682 147.352 97.976 146.595 97.6562 146.066C97.3487 145.538 96.8382 145.273 96.1248 145.273ZM109.851 151.897C109.629 152.733 109.211 153.323 108.596 153.668C107.993 154.012 107.323 154.185 106.585 154.185C105.22 154.185 104.199 153.772 103.522 152.948C102.846 152.112 102.508 150.999 102.508 149.609V149.24C102.508 147.862 102.834 146.761 103.485 145.937C104.137 145.101 105.084 144.683 106.327 144.683C106.991 144.683 107.594 144.818 108.135 145.089C108.688 145.359 109.125 145.759 109.445 146.288C109.777 146.817 109.943 147.475 109.943 148.262C109.943 148.631 109.906 149.018 109.832 149.424H104.168V149.978C104.168 151.269 104.365 152.198 104.759 152.764C105.164 153.317 105.816 153.594 106.714 153.594C107.28 153.594 107.747 153.446 108.116 153.151C108.498 152.856 108.75 152.346 108.873 151.62L109.851 151.897ZM106.327 145.273C105.601 145.273 105.06 145.55 104.703 146.103C104.346 146.657 104.168 147.567 104.168 148.834H108.319V148.779C108.344 148.619 108.362 148.465 108.375 148.317C108.387 148.157 108.393 148.016 108.393 147.893C108.393 146.971 108.203 146.306 107.821 145.9C107.44 145.482 106.942 145.273 106.327 145.273ZM125.108 150.347H125.588V154H118.189V153.022C118.189 152.173 118.331 151.466 118.614 150.9C118.897 150.335 119.259 149.855 119.702 149.461C120.157 149.055 120.643 148.686 121.16 148.354C121.603 148.059 122.033 147.758 122.451 147.45C122.869 147.143 123.214 146.768 123.484 146.325C123.767 145.87 123.909 145.304 123.909 144.627C123.909 143.693 123.724 142.998 123.355 142.543C122.999 142.087 122.494 141.86 121.842 141.86C120.994 141.86 120.403 142.167 120.071 142.782C119.751 143.385 119.653 144.252 119.776 145.384L118.171 145.089C118.048 144.424 118.097 143.803 118.318 143.225C118.552 142.647 118.964 142.18 119.555 141.823C120.145 141.454 120.914 141.269 121.861 141.269C122.771 141.269 123.509 141.429 124.075 141.749C124.641 142.069 125.053 142.487 125.311 143.004C125.569 143.52 125.698 144.074 125.698 144.664C125.698 145.341 125.569 145.907 125.311 146.362C125.053 146.817 124.714 147.192 124.296 147.487C123.878 147.782 123.423 148.047 122.931 148.28C122.439 148.502 121.959 148.736 121.492 148.982C121.037 149.215 120.619 149.492 120.237 149.812C119.868 150.132 119.561 150.519 119.315 150.974C119.081 151.417 118.94 151.964 118.89 152.616H123.65C124.081 152.616 124.339 152.592 124.425 152.542C124.524 152.481 124.598 152.346 124.647 152.137L125.108 150.347ZM137.877 147.137V148.299C137.877 149.48 137.711 150.513 137.378 151.399C137.046 152.284 136.56 152.973 135.921 153.465C135.281 153.945 134.506 154.185 133.596 154.185C132.674 154.185 131.893 153.945 131.253 153.465C130.626 152.973 130.146 152.284 129.814 151.399C129.482 150.513 129.316 149.48 129.316 148.299V147.137C129.316 145.956 129.482 144.929 129.814 144.055C130.146 143.17 130.626 142.487 131.253 142.007C131.893 141.515 132.674 141.269 133.596 141.269C134.506 141.269 135.281 141.515 135.921 142.007C136.56 142.487 137.046 143.17 137.378 144.055C137.711 144.929 137.877 145.956 137.877 147.137ZM136.087 145.845C136.087 144.418 135.872 143.397 135.441 142.782C135.011 142.167 134.396 141.86 133.596 141.86C132.797 141.86 132.182 142.167 131.751 142.782C131.321 143.397 131.105 144.418 131.105 145.845V149.59C131.105 151.03 131.321 152.057 131.751 152.672C132.182 153.287 132.797 153.594 133.596 153.594C134.396 153.594 135.011 153.287 135.441 152.672C135.872 152.057 136.087 151.03 136.087 149.59V145.845ZM148.232 150.347H148.711V154H141.313V153.022C141.313 152.173 141.454 151.466 141.737 150.9C142.02 150.335 142.383 149.855 142.826 149.461C143.281 149.055 143.767 148.686 144.283 148.354C144.726 148.059 145.157 147.758 145.575 147.45C145.993 147.143 146.338 146.768 146.608 146.325C146.891 145.87 147.033 145.304 147.033 144.627C147.033 143.693 146.848 142.998 146.479 142.543C146.122 142.087 145.618 141.86 144.966 141.86C144.117 141.86 143.527 142.167 143.195 142.782C142.875 143.385 142.777 144.252 142.9 145.384L141.295 145.089C141.172 144.424 141.221 143.803 141.442 143.225C141.676 142.647 142.088 142.18 142.678 141.823C143.269 141.454 144.037 141.269 144.985 141.269C145.895 141.269 146.633 141.429 147.199 141.749C147.764 142.069 148.176 142.487 148.435 143.004C148.693 143.52 148.822 144.074 148.822 144.664C148.822 145.341 148.693 145.907 148.435 146.362C148.176 146.817 147.838 147.192 147.42 147.487C147.002 147.782 146.547 148.047 146.055 148.28C145.563 148.502 145.083 148.736 144.616 148.982C144.16 149.215 143.742 149.492 143.361 149.812C142.992 150.132 142.684 150.519 142.438 150.974C142.205 151.417 142.063 151.964 142.014 152.616H146.774C147.205 152.616 147.463 152.592 147.549 152.542C147.648 152.481 147.721 152.346 147.771 152.137L148.232 150.347ZM156.683 152.506V150.753H151.351V150.162C151.978 149.498 152.519 148.852 152.975 148.225C153.43 147.586 153.823 146.927 154.155 146.251C154.487 145.574 154.777 144.849 155.023 144.074C155.281 143.287 155.515 142.413 155.724 141.454H157.679C157.187 143.188 156.468 144.744 155.521 146.122C154.574 147.499 153.442 148.846 152.126 150.162H156.683V147.266L158.288 147.007V150.162H159.709V150.753H158.288V152.506C158.288 152.936 158.307 153.188 158.344 153.262C158.38 153.336 158.497 153.385 158.694 153.41L159.709 153.52V154H154.893V153.52L156.277 153.41C156.474 153.397 156.591 153.354 156.628 153.28C156.665 153.194 156.683 152.936 156.683 152.506Z" fill="#180A0B"/>
</svg>
