<svg width="209" height="44" viewBox="0 0 209 44" fill="none" xmlns="http://www.w3.org/2000/svg">
<g clip-path="url(#clip0_30_112)">
<path d="M7.84774 38.4118V36.2043C7.84774 35.358 7.33255 34.8063 6.44949 34.8063C6.00804 34.8063 5.52971 34.9534 5.19854 35.4317C4.94111 35.027 4.57324 34.8063 4.02134 34.8063C3.6533 34.8063 3.28559 34.9165 2.99113 35.3213V34.8798H2.21851V38.4118H2.99113V36.4618C2.99113 35.8365 3.3223 35.542 3.83749 35.542C4.35235 35.542 4.61011 35.8732 4.61011 36.4618V38.4118H5.38273V36.4618C5.38273 35.8365 5.75044 35.542 6.22876 35.542C6.74395 35.542 7.00138 35.8732 7.00138 36.4618V38.4118H7.84774ZM19.2897 34.8798H18.039V33.8129H17.2663V34.8798H16.5673V35.5787H17.2662V37.1977C17.2662 38.0072 17.5973 38.4853 18.4804 38.4853C18.8116 38.4853 19.1793 38.3751 19.4371 38.2279L19.2162 37.5656C18.9954 37.7127 18.738 37.7496 18.554 37.7496C18.1861 37.7496 18.039 37.5289 18.039 37.1608V35.5787H19.2897V34.8798ZM25.8388 34.8061C25.3973 34.8061 25.103 35.027 24.919 35.3213V34.8798H24.1464V38.4118H24.919V36.4251C24.919 35.8365 25.1764 35.5053 25.6547 35.5053C25.8019 35.5053 25.9859 35.5422 26.1331 35.5789L26.3538 34.8431C26.2066 34.8063 25.9859 34.8063 25.8388 34.8063M15.9418 35.1743C15.5738 34.9167 15.0588 34.8064 14.5069 34.8064C13.624 34.8064 13.0354 35.2479 13.0354 35.9469C13.0354 36.5357 13.4768 36.8667 14.2494 36.9771L14.6173 37.014C15.0221 37.0874 15.2428 37.1979 15.2428 37.3819C15.2428 37.6393 14.9485 37.8233 14.4333 37.8233C13.9181 37.8233 13.5135 37.6393 13.2559 37.4555L12.888 38.0441C13.2928 38.3384 13.8447 38.4855 14.3964 38.4855C15.4266 38.4855 16.0154 38.0074 16.0154 37.345C16.0154 36.7195 15.5371 36.3884 14.8012 36.2781L14.4333 36.2412C14.1021 36.2043 13.8447 36.1309 13.8447 35.9102C13.8447 35.6526 14.1021 35.5055 14.5069 35.5055C14.9485 35.5055 15.3899 35.6893 15.6107 35.7998L15.9418 35.1743ZM36.4716 34.8064C36.03 34.8064 35.7357 35.0271 35.5517 35.3214V34.88H34.779V38.4119H35.5517V36.4252C35.5517 35.8366 35.8092 35.5055 36.2874 35.5055C36.4347 35.5055 36.6187 35.5423 36.7659 35.579L36.9866 34.8433C36.8395 34.8064 36.6187 34.8064 36.4716 34.8064ZM26.6114 36.646C26.6114 37.7129 27.3471 38.4855 28.4878 38.4855C29.0028 38.4855 29.3707 38.3752 29.7386 38.0809L29.3707 37.4555C29.0764 37.6762 28.7821 37.7865 28.4509 37.7865C27.8254 37.7865 27.384 37.345 27.384 36.646C27.384 35.9838 27.8254 35.5422 28.4509 35.5055C28.7821 35.5055 29.0764 35.6157 29.3707 35.8366L29.7386 35.2112C29.3707 34.9167 29.0028 34.8064 28.4878 34.8064C27.3471 34.8064 26.6114 35.579 26.6114 36.646ZM33.749 36.646V34.88H32.9764V35.3214C32.7188 34.9904 32.3509 34.8064 31.8726 34.8064C30.8792 34.8064 30.1066 35.579 30.1066 36.646C30.1066 37.7129 30.8792 38.4855 31.8726 38.4855C32.3876 38.4855 32.7556 38.3017 32.9764 37.9705V38.4119H33.749V36.646ZM30.9159 36.646C30.9159 36.0205 31.3207 35.5055 31.9828 35.5055C32.6083 35.5055 33.0499 35.9838 33.0499 36.646C33.0499 37.2714 32.6083 37.7865 31.9828 37.7865C31.3207 37.7496 30.9159 37.2714 30.9159 36.646ZM21.6813 34.8064C20.6511 34.8064 19.9152 35.5422 19.9152 36.646C19.9152 37.7498 20.651 38.4855 21.7181 38.4855C22.2331 38.4855 22.7483 38.3384 23.153 38.0074L22.785 37.4555C22.4907 37.6762 22.1228 37.8233 21.7549 37.8233C21.2766 37.8233 20.7983 37.6026 20.6878 36.977H23.3002V36.6828C23.337 35.5422 22.6749 34.8064 21.6813 34.8064ZM21.6812 35.4686C22.1593 35.4686 22.4907 35.7631 22.5641 36.315H20.7245C20.7981 35.8366 21.1293 35.4686 21.6812 35.4686ZM40.8496 36.646V33.4819H40.0769V35.3214C39.8193 34.9904 39.4515 34.8064 38.9731 34.8064C37.9798 34.8064 37.2072 35.579 37.2072 36.646C37.2072 37.7129 37.9798 38.4855 38.9731 38.4855C39.4883 38.4855 39.8562 38.3017 40.0769 37.9705V38.4119H40.8496V36.646ZM38.0167 36.646C38.0167 36.0205 38.4212 35.5055 39.0836 35.5055C39.7091 35.5055 40.1505 35.9838 40.1505 36.646C40.1505 37.2714 39.7091 37.7865 39.0836 37.7865C38.4212 37.7496 38.0167 37.2714 38.0167 36.646ZM12.1888 36.646V34.88H11.4162V35.3214C11.1586 34.9904 10.7907 34.8064 10.3124 34.8064C9.31908 34.8064 8.54646 35.579 8.54646 36.646C8.54646 37.7129 9.31908 38.4855 10.3124 38.4855C10.8276 38.4855 11.1955 38.3017 11.4162 37.9705V38.4119H12.1888V36.646ZM9.31908 36.646C9.31908 36.0205 9.72382 35.5055 10.386 35.5055C11.0115 35.5055 11.4531 35.9838 11.4531 36.646C11.4531 37.2714 11.0115 37.7865 10.386 37.7865C9.72382 37.7496 9.31908 37.2714 9.31908 36.646Z" fill="black"/>
<path d="M15.6838 8.05939H27.2732V28.8834H15.6838V8.05939Z" fill="#FF5F00"/>
<path d="M16.42 18.471C16.42 14.2401 18.4067 10.4872 21.4603 8.05893C19.2161 6.29296 16.3833 5.22604 13.2928 5.22604C5.97098 5.22604 0.0476074 11.1494 0.0476074 18.471C0.0476074 25.7927 5.97098 31.716 13.2926 31.716C16.3831 31.716 19.216 30.6491 21.4603 28.883C18.4067 26.4916 16.42 22.702 16.42 18.471Z" fill="#EB001B"/>
<path d="M42.91 18.471C42.91 25.7925 36.9866 31.716 29.665 31.716C26.5745 31.716 23.7416 30.6491 21.4973 28.883C24.5878 26.4549 26.5378 22.702 26.5378 18.471C26.5378 14.2401 24.5509 10.4872 21.4973 8.05893C23.7414 6.29296 26.5745 5.22604 29.665 5.22604C36.9866 5.22604 42.91 11.1863 42.91 18.471Z" fill="#F79E1B"/>
</g>
<g clip-path="url(#clip1_30_112)">
<path fill-rule="evenodd" clip-rule="evenodd" d="M82.1493 21.9105C82.1493 27.9931 77.2184 32.924 71.1358 32.924C65.0529 32.924 60.1218 27.9931 60.1218 21.9105C60.1218 15.8278 65.0529 10.8969 71.1358 10.8969C77.2184 10.8969 82.1493 15.8278 82.1493 21.9105Z" fill="#ED342B"/>
<path fill-rule="evenodd" clip-rule="evenodd" d="M71.1352 26.6282C68.6717 21.0441 66.8654 15.8275 66.8654 15.8275H63.0889C63.0889 15.8275 65.3875 22.523 69.6571 30.8962H72.6134C76.883 22.523 79.1815 15.8275 79.1815 15.8275L75.4049 15.8275C75.4049 15.8275 73.5988 21.0441 71.1352 26.6282Z" fill="#FEFEFE"/>
<path fill-rule="evenodd" clip-rule="evenodd" d="M118.567 21.336C116.432 21.336 116.268 23.635 116.268 23.635H120.866C120.866 23.635 120.702 21.336 118.567 21.336ZM123.657 25.9336H116.268C116.268 25.9336 116.432 28.397 119.717 28.397C121.359 28.397 123.001 27.9039 123.001 27.9039L123.329 30.5311C123.329 30.5311 121.687 31.1883 119.388 31.1883C116.104 31.1883 113.149 29.5461 113.149 24.9485C113.149 21.336 115.448 19.0372 118.732 19.0372C123.657 19.0372 123.986 23.9632 123.657 25.9336ZM98.532 22.0538L99.0405 19.3426C99.0405 19.3426 95.1145 18.1513 91.9235 20.359V31.2037H95.3123V22.3924C96.6679 21.3761 98.532 22.0538 98.532 22.0538ZM84.4062 21.336C82.2717 21.336 82.1076 23.635 82.1076 23.635H86.7051C86.7051 23.635 86.5411 21.336 84.4062 21.336ZM89.4964 25.9336H82.1076C82.1076 25.9336 82.2717 28.397 85.5557 28.397C87.1974 28.397 88.8396 27.9039 88.8396 27.9039L89.1682 30.5311C89.1682 30.5311 87.526 31.1883 85.2271 31.1883C81.9431 31.1883 78.9873 29.5461 78.9873 24.9485C78.9873 21.336 81.2863 19.0372 84.5703 19.0372C89.4964 19.0372 89.8246 23.9632 89.4964 25.9336ZM106.802 27.059C105.082 22.9288 104.221 19.0391 104.221 19.0391L100.781 19.0396C100.781 19.0396 102.501 25.6821 105.426 31.1863L108.178 31.1863C111.104 25.6821 112.824 19.0405 112.824 19.0405H109.383C109.383 19.0405 108.523 22.9288 106.802 27.059Z" fill="#03435F"/>
</g>
<path d="M183.351 12.6398C179.292 12.6398 175.665 14.744 175.665 18.6316C175.665 23.0901 182.098 23.3979 182.098 25.6377C182.098 26.5808 181.017 27.425 179.172 27.425C176.553 27.425 174.596 26.2454 174.596 26.2454L173.758 30.1685C173.758 30.1685 176.013 31.1649 179.007 31.1649C183.444 31.1649 186.935 28.9574 186.935 25.0032C186.935 20.2922 180.476 19.9934 180.476 17.9146C180.476 17.1757 181.363 16.3663 183.203 16.3663C185.279 16.3663 186.973 17.2242 186.973 17.2242L187.793 13.4352C187.793 13.4352 185.95 12.6398 183.351 12.6398ZM146.219 12.9258L146.121 13.4977C146.121 13.4977 147.829 13.8103 149.366 14.4339C151.346 15.1488 151.487 15.5651 151.821 16.8578L155.455 30.87H160.326L167.83 12.9258H162.97L158.148 25.1261L156.181 14.7846C156 13.601 155.086 12.9258 153.967 12.9258H146.219ZM169.785 12.9258L165.972 30.87H170.607L174.406 12.9258H169.785ZM195.632 12.9258C194.515 12.9258 193.923 13.5243 193.488 14.5701L186.699 30.87H191.559L192.499 28.1533H198.42L198.992 30.87H203.28L199.539 12.9258H195.632ZM196.265 17.7737L197.705 24.5073H193.846L196.265 17.7737Z" fill="#1434CB"/>
<defs>
<clipPath id="clip0_30_112">
<rect width="42.9048" height="33.3517" fill="white" transform="translate(0.0478516 5.22629)"/>
</clipPath>
<clipPath id="clip1_30_112">
<rect width="63.9524" height="22.2864" fill="white" transform="translate(59.9526 10.7589)"/>
</clipPath>
</defs>
</svg>
