<svg width="223" height="167" viewBox="0 0 223 167" fill="none" xmlns="http://www.w3.org/2000/svg">
<path fill-rule="evenodd" clip-rule="evenodd" d="M111.5 7.03125H122.75C123.869 7.03125 124.942 7.47572 125.733 8.26689C126.524 9.05806 126.969 10.1311 126.969 11.25V22.5C126.969 23.6189 126.524 24.6919 125.733 25.4831C124.942 26.2743 123.869 26.7188 122.75 26.7188H119.938V22.5C119.938 20.2622 119.049 18.1161 117.466 16.5338C115.884 14.9514 113.738 14.0625 111.5 14.0625H107.281V11.25C107.281 10.1311 107.726 9.05806 108.517 8.26689C109.308 7.47572 110.381 7.03125 111.5 7.03125ZM103.062 14.0625V11.25C103.062 9.01224 103.951 6.86612 105.534 5.28379C107.116 3.70145 109.262 2.8125 111.5 2.8125H122.75C124.988 2.8125 127.134 3.70145 128.716 5.28379C130.299 6.86612 131.188 9.01224 131.188 11.25V22.5C131.188 24.7378 130.299 26.8839 128.716 28.4662C127.134 30.0486 124.988 30.9375 122.75 30.9375H119.938V33.75C119.938 35.9878 119.049 38.1339 117.466 39.7162C115.884 41.2986 113.738 42.1875 111.5 42.1875H100.25C98.0122 42.1875 95.8661 41.2986 94.2838 39.7162C92.7014 38.1339 91.8125 35.9878 91.8125 33.75V22.5C91.8125 20.2622 92.7014 18.1161 94.2838 16.5338C95.8661 14.9514 98.0122 14.0625 100.25 14.0625H103.062ZM115.719 30.9375V33.75C115.719 34.8689 115.274 35.9419 114.483 36.7331C113.692 37.5243 112.619 37.9688 111.5 37.9688H100.25C99.1311 37.9688 98.0581 37.5243 97.2669 36.7331C96.4757 35.9419 96.0312 34.8689 96.0312 33.75V22.5C96.0312 21.3811 96.4757 20.3081 97.2669 19.5169C98.0581 18.7257 99.1311 18.2812 100.25 18.2812H103.062V22.5C103.062 24.7378 103.951 26.8839 105.534 28.4662C107.116 30.0486 109.262 30.9375 111.5 30.9375H115.719ZM115.719 26.7188H111.5C110.381 26.7188 109.308 26.2743 108.517 25.4831C107.726 24.6919 107.281 23.6189 107.281 22.5V18.2812H111.5C112.619 18.2812 113.692 18.7257 114.483 19.5169C115.274 20.3081 115.719 21.3811 115.719 22.5V26.7188Z" fill="#501B1F"/>
<path d="M28.6316 72.014H43.1791V76.5634H42.4385L41.5921 73.6275C41.5392 73.3982 41.4775 73.2395 41.407 73.1514C41.3541 73.0456 41.2395 72.9838 41.0631 72.9662C40.8868 72.9486 40.587 72.9397 40.1638 72.9397H37.4924V87.7782C37.4924 88.3777 37.5188 88.7392 37.5717 88.8627C37.6246 88.9685 37.7922 89.039 38.0743 89.0743L39.529 89.2594V90H32.2817V89.2594L33.7365 89.0743C34.0186 89.039 34.1861 88.9685 34.239 88.8627C34.2919 88.7392 34.3184 88.3777 34.3184 87.7782V72.9397H31.6469C31.2414 72.9397 30.9416 72.9486 30.7476 72.9662C30.5713 72.9838 30.4567 73.0456 30.4038 73.1514C30.3509 73.2395 30.2892 73.3982 30.2186 73.6275L29.3722 76.5634H28.6316V72.014ZM45.4332 77.3304V76.5898H50.3529V78.7588C51.4285 77.1365 52.7069 76.3254 54.1881 76.3254C54.7348 76.3254 55.2638 76.5017 55.7751 76.8544C56.2865 77.1894 56.7097 77.8242 57.0447 78.7588L54.6907 80.0284C54.4438 79.3054 54.1529 78.8205 53.8178 78.5736C53.5004 78.3091 53.1566 78.1768 52.7863 78.1768C52.3983 78.1768 52.0192 78.3003 51.6489 78.5471C51.2786 78.794 50.8995 79.2525 50.5116 79.9226V87.7782C50.5116 88.3777 50.538 88.7392 50.5909 88.8627C50.6438 88.9685 50.8113 89.039 51.0935 89.0743L53.0772 89.2594V90H45.4332V89.2594L46.8879 89.0743C47.1701 89.039 47.3376 88.9685 47.3905 88.8627C47.4434 88.7392 47.4698 88.3777 47.4698 87.7782V78.8117C47.4698 78.2121 47.4434 77.8594 47.3905 77.7536C47.3376 77.6302 47.1701 77.5509 46.8879 77.5156L45.4332 77.3304ZM72.3337 89.3388C72.0515 89.6033 71.7077 89.8237 71.3021 90C70.9142 90.1763 70.4381 90.2645 69.8738 90.2645C69.1508 90.2645 68.5425 90.1058 68.0488 89.7884C67.5727 89.471 67.2553 89.0213 67.0966 88.4394C66.5147 89.0742 65.871 89.5415 65.1657 89.8413C64.478 90.1234 63.7727 90.2645 63.0497 90.2645C61.833 90.2645 60.9249 89.9295 60.3254 89.2594C59.7258 88.5717 59.4261 87.7165 59.4261 86.6938C59.4261 85.6534 59.8052 84.8158 60.5634 84.181C61.3216 83.5286 62.6618 83.2024 64.5838 83.2024H66.9908V81.0599C66.9908 79.5963 66.7968 78.6 66.4089 78.071C66.0386 77.5244 65.5184 77.2511 64.8483 77.2511C64.4075 77.2511 64.0019 77.3657 63.6316 77.595C63.2613 77.8066 62.9968 78.2121 62.8381 78.8117C62.697 79.3936 62.7235 80.2399 62.9175 81.3508L60.008 80.9276C59.8669 80.1165 59.9551 79.3671 60.2725 78.6794C60.6075 77.9741 61.1629 77.4098 61.9388 76.9866C62.7147 76.5458 63.7021 76.3254 64.9012 76.3254C66.259 76.3254 67.3082 76.5458 68.0488 76.9866C68.7894 77.4274 69.3007 78.0093 69.5829 78.7323C69.8826 79.4553 70.0325 80.2311 70.0325 81.0599V87.1698C70.0325 88.0691 70.1119 88.6334 70.2706 88.8627C70.4293 89.0919 70.6056 89.2065 70.7996 89.2065C71.117 89.2065 71.4696 89.0213 71.8576 88.651L72.3337 89.3388ZM64.2135 88.8627C64.672 88.8627 65.1216 88.748 65.5625 88.5188C66.0209 88.2719 66.497 87.8223 66.9908 87.1698V84.1281H65.007C64.143 84.1281 63.517 84.3309 63.1291 84.7364C62.7411 85.142 62.5472 85.7768 62.5472 86.6409C62.5472 87.3462 62.6882 87.8928 62.9704 88.2807C63.2525 88.6687 63.6669 88.8627 64.2135 88.8627ZM89.9781 89.2594V90H82.863V89.2594L84.3178 89.0743C84.5999 89.039 84.7674 88.9685 84.8203 88.8627C84.8732 88.7392 84.8997 88.3777 84.8997 87.7782V81.1128C84.8997 79.8961 84.7145 79.0144 84.3442 78.4678C83.9916 77.9035 83.4626 77.6214 82.7572 77.6214C82.4575 77.6214 82.1048 77.7007 81.6992 77.8594C81.3113 78.0005 80.9145 78.265 80.509 78.6529C80.121 79.0409 79.7772 79.614 79.4774 80.3722V87.7782C79.4774 88.3777 79.5039 88.7392 79.5568 88.8627C79.6097 88.9685 79.7772 89.039 80.0593 89.0743L81.5141 89.2594V90H74.399V89.2594L75.8538 89.0743C76.1359 89.039 76.3034 88.9685 76.3563 88.8627C76.4092 88.7392 76.4357 88.3777 76.4357 87.7782V78.8117C76.4357 78.2121 76.4092 77.8594 76.3563 77.7536C76.3034 77.6302 76.1359 77.5509 75.8538 77.5156L74.399 77.3304V76.5898H79.3187V78.9174C79.8301 78.0181 80.4825 77.3657 81.276 76.9601C82.0872 76.5369 82.8983 76.3254 83.7094 76.3254C85.0143 76.3254 86.0458 76.7397 86.8041 77.5685C87.5623 78.3973 87.9414 79.5699 87.9414 81.0864V87.7782C87.9414 88.3777 87.9679 88.7392 88.0208 88.8627C88.0737 88.9685 88.2412 89.039 88.5233 89.0743L89.9781 89.2594ZM98.2317 85.0009L96.4067 84.5777C95.2252 84.2956 94.3436 83.7931 93.7617 83.0701C93.1974 82.3295 92.9153 81.4566 92.9153 80.4515C92.9153 79.7109 93.074 79.0321 93.3914 78.4149C93.7264 77.7801 94.2466 77.2775 94.9519 76.9072C95.6572 76.5193 96.5742 76.3254 97.7027 76.3254C98.9194 76.3254 99.9069 76.5193 100.665 76.9072C101.423 77.2952 101.961 77.8066 102.279 78.4414C102.596 79.0762 102.693 79.755 102.57 80.478L99.66 81.007C99.9069 79.8079 99.8363 78.8822 99.4484 78.2297C99.0781 77.5773 98.4521 77.2511 97.5705 77.2511C96.9533 77.2511 96.4419 77.4362 96.0364 77.8065C95.6308 78.1592 95.428 78.6706 95.428 79.3406C95.428 79.9578 95.6043 80.5044 95.957 80.9805C96.3097 81.439 96.8299 81.7476 97.5176 81.9063L99.3426 82.3295C100.647 82.6293 101.591 83.1054 102.173 83.7578C102.755 84.3926 103.046 85.1861 103.046 86.1383C103.046 87.3197 102.605 88.3072 101.723 89.1007C100.859 89.8766 99.563 90.2645 97.835 90.2645C97.2354 90.2645 96.5742 90.1763 95.8512 90C95.1459 89.806 94.4934 89.4622 93.8939 88.9685C93.312 88.4747 92.8888 87.7694 92.6243 86.8525L94.3436 86.1647C94.467 87.3285 94.8637 88.1485 95.5338 88.6246C96.2215 89.1007 96.9886 89.3388 97.835 89.3388C98.6285 89.3388 99.2721 89.1624 99.7658 88.8098C100.277 88.4395 100.533 87.9105 100.533 87.2228C100.533 86.7467 100.365 86.3146 100.03 85.9267C99.7129 85.5211 99.1134 85.2126 98.2317 85.0009ZM106.047 77.3304V76.5898H110.967V78.7852C111.478 77.9564 112.033 77.3393 112.633 76.9337C113.232 76.5281 113.947 76.3254 114.775 76.3254C116.257 76.3254 117.429 76.9161 118.293 78.0975C119.175 79.2613 119.616 80.9012 119.616 83.0172V83.5462C119.616 85.5917 119.113 87.2227 118.108 88.4394C117.103 89.6561 115.71 90.2645 113.929 90.2645C112.871 90.2645 111.936 90 111.125 89.471V93.4121C111.125 94.0116 111.152 94.3642 111.205 94.4701C111.258 94.5935 111.425 94.6728 111.707 94.7081L113.691 94.8932V95.6339H106.047V94.8932L107.502 94.7081C107.784 94.6728 107.951 94.5935 108.004 94.4701C108.057 94.3642 108.084 94.0116 108.084 93.4121V78.8117C108.084 78.2121 108.057 77.8594 108.004 77.7536C107.951 77.6302 107.784 77.5509 107.502 77.5156L106.047 77.3304ZM114.088 77.4892C113.647 77.4892 113.18 77.6743 112.686 78.0446C112.21 78.3973 111.69 79.1291 111.125 80.2399V88.2279C111.795 88.8979 112.615 89.233 113.585 89.233C114.573 89.233 115.278 88.8009 115.701 87.9369C116.142 87.0552 116.362 85.8562 116.362 84.3397V82.2237C116.362 80.5838 116.16 79.3847 115.754 78.6265C115.348 77.8683 114.793 77.4892 114.088 77.4892ZM136.516 89.3388C136.234 89.6033 135.89 89.8237 135.485 90C135.097 90.1763 134.621 90.2645 134.056 90.2645C133.333 90.2645 132.725 90.1058 132.231 89.7884C131.755 89.471 131.438 89.0213 131.279 88.4394C130.697 89.0742 130.054 89.5415 129.348 89.8413C128.661 90.1234 127.955 90.2645 127.232 90.2645C126.016 90.2645 125.107 89.9295 124.508 89.2594C123.908 88.5717 123.609 87.7165 123.609 86.6938C123.609 85.6534 123.988 84.8158 124.746 84.181C125.504 83.5286 126.844 83.2024 128.766 83.2024H131.173V81.0599C131.173 79.5963 130.979 78.6 130.591 78.071C130.221 77.5244 129.701 77.2511 129.031 77.2511C128.59 77.2511 128.184 77.3657 127.814 77.595C127.444 77.8066 127.179 78.2121 127.021 78.8117C126.88 79.3936 126.906 80.2399 127.1 81.3508L124.191 80.9276C124.049 80.1165 124.138 79.3671 124.455 78.6794C124.79 77.9741 125.346 77.4098 126.121 76.9866C126.897 76.5458 127.885 76.3254 129.084 76.3254C130.442 76.3254 131.491 76.5458 132.231 76.9866C132.972 77.4274 133.483 78.0093 133.765 78.7323C134.065 79.4553 134.215 80.2311 134.215 81.0599V87.1698C134.215 88.0691 134.294 88.6334 134.453 88.8627C134.612 89.0919 134.788 89.2065 134.982 89.2065C135.3 89.2065 135.652 89.0213 136.04 88.651L136.516 89.3388ZM128.396 88.8627C128.855 88.8627 129.304 88.748 129.745 88.5188C130.203 88.2719 130.68 87.8223 131.173 87.1698V84.1281H129.19C128.326 84.1281 127.7 84.3309 127.312 84.7364C126.924 85.142 126.73 85.7768 126.73 86.6409C126.73 87.3462 126.871 87.8928 127.153 88.2807C127.435 88.6687 127.849 88.8627 128.396 88.8627ZM138.582 77.3304V76.5898H143.501V78.7588C144.577 77.1365 145.855 76.3254 147.337 76.3254C147.883 76.3254 148.412 76.5017 148.924 76.8544C149.435 77.1894 149.858 77.8242 150.193 78.7588L147.839 80.0284C147.592 79.3054 147.301 78.8205 146.966 78.5736C146.649 78.3091 146.305 78.1768 145.935 78.1768C145.547 78.1768 145.168 78.3003 144.797 78.5471C144.427 78.794 144.048 79.2525 143.66 79.9226V87.7782C143.66 88.3777 143.686 88.7392 143.739 88.8627C143.792 88.9685 143.96 89.039 144.242 89.0743L146.226 89.2594V90H138.582V89.2594L140.036 89.0743C140.318 89.039 140.486 88.9685 140.539 88.8627C140.592 88.7392 140.618 88.3777 140.618 87.7782V78.8117C140.618 78.2121 140.592 77.8594 140.539 77.7536C140.486 77.6302 140.318 77.5509 140.036 77.5156L138.582 77.3304ZM163.663 86.8525C163.346 88.0868 162.755 88.9684 161.891 89.4974C161.027 90.0088 160.022 90.2645 158.876 90.2645C156.76 90.2645 155.173 89.6561 154.115 88.4394C153.057 87.2051 152.528 85.574 152.528 83.5462V83.0172C152.528 80.9894 153.021 79.3671 154.009 78.1504C155.014 76.9337 156.46 76.3254 158.347 76.3254C159.405 76.3254 160.339 76.5369 161.15 76.9601C161.979 77.3657 162.623 77.9564 163.081 78.7323C163.557 79.5082 163.795 80.4515 163.795 81.5625C163.795 81.8269 163.778 82.1091 163.743 82.4089C163.725 82.7086 163.681 83.0084 163.61 83.3081H155.781V84.0752C155.781 85.9443 156.046 87.2933 156.575 88.1221C157.104 88.9332 157.959 89.3388 159.14 89.3388C159.898 89.3388 160.542 89.1183 161.071 88.6775C161.6 88.219 161.9 87.452 161.97 86.3763L163.663 86.8525ZM158.347 77.2511C157.483 77.2511 156.839 77.6479 156.416 78.4414C155.993 79.2349 155.781 80.5485 155.781 82.3824H160.569C160.639 82.0297 160.683 81.7035 160.701 81.4037C160.736 81.0863 160.754 80.7954 160.754 80.5309C160.754 79.4024 160.533 78.5736 160.092 78.0446C159.652 77.5156 159.07 77.2511 158.347 77.2511ZM182.636 89.2594V90H175.521V89.2594L176.975 89.0743C177.258 89.039 177.425 88.9685 177.478 88.8627C177.531 88.7392 177.557 88.3777 177.557 87.7782V81.1128C177.557 79.8961 177.372 79.0144 177.002 78.4678C176.649 77.9035 176.12 77.6214 175.415 77.6214C175.115 77.6214 174.762 77.7007 174.357 77.8594C173.969 78.0005 173.572 78.265 173.167 78.6529C172.779 79.0409 172.435 79.614 172.135 80.3722V87.7782C172.135 88.3777 172.162 88.7392 172.214 88.8627C172.267 88.9685 172.435 89.039 172.717 89.0743L174.172 89.2594V90H167.057V89.2594L168.511 89.0743C168.794 89.039 168.961 88.9685 169.014 88.8627C169.067 88.7392 169.093 88.3777 169.093 87.7782V78.8117C169.093 78.2121 169.067 77.8594 169.014 77.7536C168.961 77.6302 168.794 77.5509 168.511 77.5156L167.057 77.3304V76.5898H171.976V78.9174C172.488 78.0181 173.14 77.3657 173.934 76.9601C174.745 76.5369 175.556 76.3254 176.367 76.3254C177.672 76.3254 178.703 76.7397 179.462 77.5685C180.22 78.3973 180.599 79.5699 180.599 81.0864V87.7782C180.599 88.3777 180.626 88.7392 180.678 88.8627C180.731 88.9685 180.899 89.039 181.181 89.0743L182.636 89.2594ZM194.275 87.2492C194.046 88.3248 193.605 89.1007 192.952 89.5768C192.318 90.0353 191.542 90.2645 190.625 90.2645C189.69 90.2645 188.923 90.0617 188.324 89.6562C187.724 89.233 187.283 88.6775 187.001 87.9898C186.719 87.3021 186.578 86.5703 186.578 85.7944V78.8117C186.578 78.2121 186.552 77.8594 186.499 77.7536C186.446 77.6302 186.278 77.5509 185.996 77.5156L184.541 77.3304V76.5898H186.578V73.5217L189.62 72.9133V76.5898H193.852V77.5156H189.62V86.3234C189.62 87.452 189.761 88.2367 190.043 88.6775C190.325 89.1007 190.687 89.3123 191.127 89.3123C191.586 89.3123 191.939 89.136 192.185 88.7833C192.45 88.4306 192.617 87.787 192.688 86.8525L194.275 87.2492Z" fill="#180A0B"/>
<path d="M40.2671 131.594C41.0912 131.594 41.7554 131.391 42.2597 130.985C42.7763 130.579 43.0346 129.983 43.0346 129.196C43.0346 128.568 42.844 128.046 42.4627 127.627C42.0814 127.197 41.4172 126.852 40.4701 126.594L39.197 126.225C38.2622 125.967 37.5488 125.53 37.0568 124.915C36.5648 124.3 36.3188 123.55 36.3188 122.664C36.3188 122.074 36.4541 121.52 36.7247 121.004C37.0076 120.487 37.432 120.069 37.9978 119.749C38.5759 119.429 39.3077 119.269 40.1933 119.269C41.1773 119.269 41.9707 119.454 42.5734 119.823C43.1761 120.18 43.5943 120.647 43.828 121.225C44.0617 121.803 44.117 122.424 43.994 123.089L42.4442 123.421C42.6041 122.277 42.4873 121.397 42.0937 120.782C41.7124 120.167 41.0482 119.86 40.1011 119.86C39.3508 119.86 38.7604 120.063 38.3299 120.469C37.8994 120.862 37.6841 121.44 37.6841 122.203C37.6841 122.806 37.8563 123.322 38.2007 123.753C38.5451 124.171 39.154 124.503 40.0273 124.749L41.3003 125.118C43.3544 125.684 44.3815 126.883 44.3815 128.716C44.3815 129.368 44.2277 129.958 43.9202 130.487C43.625 131.004 43.1699 131.416 42.5549 131.723C41.9522 132.031 41.1896 132.185 40.2671 132.185C39.6275 132.185 39.0125 132.086 38.4221 131.889C37.844 131.692 37.3459 131.354 36.9277 130.875C36.5218 130.395 36.2512 129.731 36.1159 128.882L37.2229 128.513C37.2844 129.325 37.4627 129.952 37.7579 130.395C38.0531 130.838 38.4221 131.151 38.8649 131.336C39.3077 131.508 39.7751 131.594 40.2671 131.594ZM54.8215 129.897C54.6001 130.733 54.1819 131.323 53.5669 131.668C52.9642 132.012 52.2938 132.185 51.5558 132.185C50.1905 132.185 49.1696 131.772 48.4931 130.948C47.8166 130.112 47.4784 128.999 47.4784 127.609V127.24C47.4784 125.862 47.8043 124.761 48.4562 123.937C49.1081 123.101 50.0552 122.683 51.2975 122.683C51.9617 122.683 52.5644 122.818 53.1056 123.089C53.6591 123.359 54.0958 123.759 54.4156 124.288C54.7477 124.817 54.9137 125.475 54.9137 126.262C54.9137 126.631 54.8768 127.018 54.803 127.424H49.1389V127.978C49.1389 129.269 49.3357 130.198 49.7293 130.764C50.1352 131.317 50.7871 131.594 51.685 131.594C52.2508 131.594 52.7182 131.446 53.0872 131.151C53.4685 130.856 53.7206 130.346 53.8436 129.62L54.8215 129.897ZM51.2975 123.273C50.5718 123.273 50.0306 123.55 49.6739 124.103C49.3172 124.657 49.1389 125.567 49.1389 126.834H53.2901V126.779C53.3147 126.619 53.3332 126.465 53.3455 126.317C53.3578 126.157 53.3639 126.016 53.3639 125.893C53.3639 124.971 53.1733 124.306 52.792 123.9C52.4107 123.482 51.9125 123.273 51.2975 123.273ZM65.4374 129.897C65.216 130.733 64.7978 131.323 64.1828 131.668C63.5801 132.012 62.9098 132.185 62.1718 132.185C60.8065 132.185 59.7856 131.772 59.1091 130.948C58.4326 130.112 58.0943 128.999 58.0943 127.609V127.24C58.0943 125.862 58.4203 124.761 59.0722 123.937C59.7241 123.101 60.6712 122.683 61.9135 122.683C62.5777 122.683 63.1804 122.818 63.7216 123.089C64.2751 123.359 64.7117 123.759 65.0315 124.288C65.3636 124.817 65.5297 125.475 65.5297 126.262C65.5297 126.631 65.4928 127.018 65.419 127.424H59.7548V127.978C59.7548 129.269 59.9516 130.198 60.3452 130.764C60.7511 131.317 61.403 131.594 62.3009 131.594C62.8667 131.594 63.3341 131.446 63.7031 131.151C64.0844 130.856 64.3366 130.346 64.4596 129.62L65.4374 129.897ZM61.9135 123.273C61.1878 123.273 60.6466 123.55 60.2899 124.103C59.9332 124.657 59.7548 125.567 59.7548 126.834H63.9061V126.779C63.9307 126.619 63.9491 126.465 63.9614 126.317C63.9737 126.157 63.9799 126.016 63.9799 125.893C63.9799 124.971 63.7892 124.306 63.4079 123.9C63.0266 123.482 62.5285 123.273 61.9135 123.273ZM78.3227 131.52V132H73.9685V131.52L74.9833 131.41C75.1801 131.385 75.2969 131.336 75.3338 131.262C75.3707 131.188 75.3892 130.936 75.3892 130.506V125.911C75.3892 125.001 75.2477 124.362 74.9648 123.993C74.6942 123.611 74.2945 123.421 73.7656 123.421C73.3843 123.421 72.9538 123.544 72.4741 123.79C72.0067 124.036 71.5577 124.509 71.1272 125.21V130.506C71.1272 130.936 71.1457 131.188 71.1826 131.262C71.2195 131.336 71.3363 131.385 71.5331 131.41L72.5479 131.52V132H68.1937V131.52L69.2084 131.41C69.4052 131.385 69.5221 131.336 69.559 131.262C69.5959 131.188 69.6143 130.936 69.6143 130.506V124.362C69.6143 123.931 69.5959 123.679 69.559 123.605C69.5221 123.531 69.4052 123.482 69.2084 123.458L68.1937 123.365V122.867H71.035V124.362C71.4655 123.784 71.9513 123.359 72.4925 123.089C73.046 122.818 73.5934 122.683 74.1346 122.683C75.463 122.683 76.3178 123.292 76.6991 124.509C77.1542 123.87 77.6585 123.408 78.212 123.126C78.7778 122.83 79.3436 122.683 79.9094 122.683C80.7827 122.683 81.4592 122.966 81.9389 123.531C82.4309 124.085 82.6769 124.872 82.6769 125.893V130.506C82.6769 130.936 82.6954 131.188 82.7323 131.262C82.7692 131.336 82.886 131.385 83.0828 131.41L84.0976 131.52V132H79.7434V131.52L80.7581 131.41C80.9549 131.385 81.0718 131.336 81.1087 131.262C81.1456 131.188 81.164 130.936 81.164 130.506V125.911C81.164 125.001 81.0226 124.362 80.7397 123.993C80.4691 123.611 80.0693 123.421 79.5404 123.421C79.1591 123.421 78.7225 123.55 78.2305 123.808C77.7508 124.054 77.2957 124.54 76.8652 125.266C76.8775 125.364 76.8836 125.469 76.8836 125.579C76.8959 125.678 76.9021 125.782 76.9021 125.893V130.506C76.9021 130.936 76.9205 131.188 76.9574 131.262C76.9943 131.336 77.1112 131.385 77.308 131.41L78.3227 131.52ZM85.9596 118.845V118.347H88.8931V130.506C88.8931 130.936 88.9116 131.188 88.9485 131.262C88.9854 131.336 89.1022 131.385 89.299 131.41L90.3138 131.52V132H85.9596V131.52L86.9743 131.41C87.1711 131.385 87.288 131.336 87.3249 131.262C87.3618 131.188 87.3802 130.936 87.3802 130.506V119.841C87.3802 119.411 87.3618 119.159 87.3249 119.085C87.288 119.011 87.1711 118.962 86.9743 118.937L85.9596 118.845ZM100.276 129.897C100.055 130.733 99.6366 131.323 99.0216 131.668C98.4189 132.012 97.7486 132.185 97.0106 132.185C95.6453 132.185 94.6244 131.772 93.9479 130.948C93.2714 130.112 92.9331 128.999 92.9331 127.609V127.24C92.9331 125.862 93.2591 124.761 93.911 123.937C94.5629 123.101 95.51 122.683 96.7523 122.683C97.4165 122.683 98.0192 122.818 98.5604 123.089C99.1139 123.359 99.5505 123.759 99.8703 124.288C100.202 124.817 100.368 125.475 100.368 126.262C100.368 126.631 100.332 127.018 100.258 127.424H94.5936V127.978C94.5936 129.269 94.7904 130.198 95.184 130.764C95.5899 131.317 96.2418 131.594 97.1397 131.594C97.7055 131.594 98.1729 131.446 98.5419 131.151C98.9232 130.856 99.1754 130.346 99.2984 129.62L100.276 129.897ZM96.7523 123.273C96.0266 123.273 95.4854 123.55 95.1287 124.103C94.772 124.657 94.5936 125.567 94.5936 126.834H98.7449V126.779C98.7695 126.619 98.7879 126.465 98.8002 126.317C98.8125 126.157 98.8187 126.016 98.8187 125.893C98.8187 124.971 98.628 124.306 98.2467 123.9C97.8654 123.482 97.3673 123.273 96.7523 123.273ZM106.925 128.273L105.8 127.996C104.262 127.603 103.494 126.717 103.494 125.34C103.494 124.884 103.598 124.454 103.807 124.048C104.016 123.642 104.349 123.316 104.804 123.07C105.271 122.812 105.868 122.683 106.593 122.683C107.405 122.683 108.057 122.818 108.549 123.089C109.041 123.359 109.385 123.71 109.582 124.14C109.779 124.571 109.841 125.038 109.767 125.542L108.328 125.801C108.475 125.001 108.389 124.38 108.069 123.937C107.762 123.495 107.251 123.273 106.538 123.273C105.984 123.273 105.542 123.415 105.21 123.697C104.877 123.968 104.711 124.368 104.711 124.897C104.711 125.29 104.834 125.641 105.08 125.948C105.326 126.244 105.738 126.465 106.317 126.613L107.479 126.889C108.291 127.086 108.918 127.4 109.361 127.83C109.816 128.261 110.043 128.827 110.043 129.528C110.043 130.315 109.754 130.954 109.176 131.446C108.611 131.938 107.799 132.185 106.741 132.185C106.237 132.185 105.745 132.111 105.265 131.963C104.798 131.803 104.385 131.557 104.029 131.225C103.684 130.881 103.432 130.438 103.272 129.897L104.306 129.528C104.441 130.303 104.736 130.844 105.191 131.151C105.646 131.459 106.169 131.613 106.759 131.613C107.104 131.613 107.43 131.557 107.737 131.446C108.057 131.336 108.315 131.164 108.512 130.93C108.709 130.684 108.807 130.37 108.807 129.989C108.807 129.595 108.672 129.257 108.401 128.974C108.131 128.691 107.639 128.458 106.925 128.273ZM116.586 128.273L115.461 127.996C113.923 127.603 113.155 126.717 113.155 125.34C113.155 124.884 113.259 124.454 113.468 124.048C113.677 123.642 114.01 123.316 114.465 123.07C114.932 122.812 115.529 122.683 116.254 122.683C117.066 122.683 117.718 122.818 118.21 123.089C118.702 123.359 119.046 123.71 119.243 124.14C119.44 124.571 119.502 125.038 119.428 125.542L117.989 125.801C118.136 125.001 118.05 124.38 117.73 123.937C117.423 123.495 116.912 123.273 116.199 123.273C115.645 123.273 115.203 123.415 114.871 123.697C114.538 123.968 114.372 124.368 114.372 124.897C114.372 125.29 114.495 125.641 114.741 125.948C114.987 126.244 115.399 126.465 115.978 126.613L117.14 126.889C117.952 127.086 118.579 127.4 119.022 127.83C119.477 128.261 119.704 128.827 119.704 129.528C119.704 130.315 119.415 130.954 118.837 131.446C118.272 131.938 117.46 132.185 116.402 132.185C115.898 132.185 115.406 132.111 114.926 131.963C114.459 131.803 114.046 131.557 113.69 131.225C113.345 130.881 113.093 130.438 112.933 129.897L113.967 129.528C114.102 130.303 114.397 130.844 114.852 131.151C115.307 131.459 115.83 131.613 116.42 131.613C116.765 131.613 117.091 131.557 117.398 131.446C117.718 131.336 117.976 131.164 118.173 130.93C118.37 130.684 118.468 130.37 118.468 129.989C118.468 129.595 118.333 129.257 118.062 128.974C117.792 128.691 117.3 128.458 116.586 128.273ZM127.457 123.365V122.867H130.298V124.343C130.729 123.765 131.159 123.347 131.59 123.089C132.033 122.818 132.482 122.683 132.937 122.683C133.33 122.683 133.699 122.8 134.044 123.033C134.388 123.267 134.677 123.642 134.911 124.159L133.712 124.878C133.527 124.435 133.318 124.128 133.084 123.956C132.851 123.784 132.592 123.697 132.309 123.697C132.002 123.697 131.694 123.796 131.387 123.993C131.092 124.189 130.76 124.558 130.391 125.1V130.506C130.391 130.936 130.409 131.194 130.446 131.28C130.483 131.354 130.6 131.397 130.797 131.41L132.18 131.52V132H127.457V131.52L128.472 131.41C128.669 131.385 128.785 131.336 128.822 131.262C128.859 131.188 128.878 130.936 128.878 130.506V124.362C128.878 123.931 128.859 123.679 128.822 123.605C128.785 123.531 128.669 123.482 128.472 123.458L127.457 123.365ZM144.239 129.897C144.018 130.733 143.599 131.323 142.984 131.668C142.382 132.012 141.711 132.185 140.973 132.185C139.608 132.185 138.587 131.772 137.911 130.948C137.234 130.112 136.896 128.999 136.896 127.609V127.24C136.896 125.862 137.222 124.761 137.874 123.937C138.526 123.101 139.473 122.683 140.715 122.683C141.379 122.683 141.982 122.818 142.523 123.089C143.077 123.359 143.513 123.759 143.833 124.288C144.165 124.817 144.331 125.475 144.331 126.262C144.331 126.631 144.294 127.018 144.221 127.424H138.556V127.978C138.556 129.269 138.753 130.198 139.147 130.764C139.553 131.317 140.205 131.594 141.103 131.594C141.668 131.594 142.136 131.446 142.505 131.151C142.886 130.856 143.138 130.346 143.261 129.62L144.239 129.897ZM140.715 123.273C139.989 123.273 139.448 123.55 139.092 124.103C138.735 124.657 138.556 125.567 138.556 126.834H142.708V126.779C142.732 126.619 142.751 126.465 142.763 126.317C142.775 126.157 142.782 126.016 142.782 125.893C142.782 124.971 142.591 124.306 142.21 123.9C141.828 123.482 141.33 123.273 140.715 123.273ZM153.084 130.118C152.899 130.831 152.61 131.354 152.217 131.686C151.823 132.018 151.319 132.185 150.704 132.185C150.113 132.185 149.634 132.055 149.265 131.797C148.896 131.526 148.625 131.176 148.453 130.745C148.281 130.315 148.195 129.866 148.195 129.399V124.362C148.195 123.931 148.176 123.679 148.139 123.605C148.115 123.531 147.998 123.482 147.789 123.458L146.774 123.365V122.867H148.195V120.45L149.708 120.137V122.867H152.715V123.458H149.708V129.546C149.708 130.321 149.812 130.856 150.021 131.151C150.243 131.446 150.532 131.594 150.888 131.594C151.245 131.594 151.516 131.459 151.7 131.188C151.897 130.918 152.038 130.475 152.124 129.86L153.084 130.118ZM164.924 131.52V132H162.082V130.524C161.652 131.102 161.16 131.526 160.606 131.797C160.065 132.055 159.524 132.185 158.983 132.185C158.109 132.185 157.427 131.908 156.935 131.354C156.455 130.788 156.215 129.995 156.215 128.974V124.362C156.215 123.931 156.197 123.679 156.16 123.605C156.123 123.531 156.006 123.482 155.809 123.458L154.795 123.365V122.867H157.728V128.956C157.728 129.866 157.863 130.512 158.134 130.893C158.417 131.262 158.823 131.446 159.352 131.446C159.745 131.446 160.176 131.323 160.643 131.077C161.123 130.831 161.572 130.358 161.99 129.657V124.362C161.99 123.931 161.972 123.679 161.935 123.605C161.898 123.519 161.781 123.47 161.584 123.458L160.2 123.365V122.867H163.503V130.506C163.503 130.936 163.521 131.188 163.558 131.262C163.595 131.336 163.712 131.385 163.909 131.41L164.924 131.52ZM167.02 123.365V122.867H169.861V124.343C170.292 123.765 170.722 123.347 171.153 123.089C171.596 122.818 172.045 122.683 172.5 122.683C172.893 122.683 173.262 122.8 173.607 123.033C173.951 123.267 174.24 123.642 174.474 124.159L173.275 124.878C173.09 124.435 172.881 124.128 172.647 123.956C172.414 123.784 172.155 123.697 171.872 123.697C171.565 123.697 171.257 123.796 170.95 123.993C170.655 124.189 170.323 124.558 169.954 125.1V130.506C169.954 130.936 169.972 131.194 170.009 131.28C170.046 131.354 170.163 131.397 170.36 131.41L171.743 131.52V132H167.02V131.52L168.035 131.41C168.232 131.385 168.348 131.336 168.385 131.262C168.422 131.188 168.441 130.936 168.441 130.506V124.362C168.441 123.931 168.422 123.679 168.385 123.605C168.348 123.531 168.232 123.482 168.035 123.458L167.02 123.365ZM186.364 131.52V132H182.01V131.52L183.025 131.41C183.221 131.385 183.338 131.336 183.375 131.262C183.412 131.188 183.431 130.936 183.431 130.506V125.911C183.431 125.001 183.283 124.362 182.988 123.993C182.693 123.611 182.268 123.421 181.715 123.421C181.309 123.421 180.86 123.544 180.368 123.79C179.876 124.036 179.415 124.515 178.984 125.229V130.506C178.984 130.936 179.003 131.188 179.039 131.262C179.076 131.336 179.193 131.385 179.39 131.41L180.405 131.52V132H176.051V131.52L177.065 131.41C177.262 131.385 177.379 131.336 177.416 131.262C177.453 131.188 177.471 130.936 177.471 130.506V124.362C177.471 123.931 177.453 123.679 177.416 123.605C177.379 123.531 177.262 123.482 177.065 123.458L176.051 123.365V122.867H178.892V124.362C179.335 123.771 179.833 123.347 180.386 123.089C180.952 122.818 181.518 122.683 182.084 122.683C182.994 122.683 183.695 122.966 184.187 123.531C184.691 124.085 184.943 124.872 184.943 125.893V130.506C184.943 130.936 184.962 131.188 184.999 131.262C185.036 131.336 185.153 131.385 185.349 131.41L186.364 131.52ZM69.1526 151.897C68.9312 152.733 68.513 153.323 67.898 153.668C67.2953 154.012 66.625 154.185 65.887 154.185C64.5217 154.185 63.5008 153.772 62.8243 152.948C62.1478 152.112 61.8095 150.999 61.8095 149.609V149.24C61.8095 147.862 62.1355 146.761 62.7874 145.937C63.4393 145.101 64.3864 144.683 65.6287 144.683C66.2929 144.683 66.8956 144.818 67.4368 145.089C67.9903 145.359 68.4269 145.759 68.7467 146.288C69.0788 146.817 69.2449 147.475 69.2449 148.262C69.2449 148.631 69.208 149.018 69.1342 149.424H63.47V149.978C63.47 151.269 63.6668 152.198 64.0604 152.764C64.4663 153.317 65.1182 153.594 66.0161 153.594C66.5819 153.594 67.0493 153.446 67.4183 153.151C67.7996 152.856 68.0518 152.346 68.1748 151.62L69.1526 151.897ZM65.6287 145.273C64.903 145.273 64.3618 145.55 64.0051 146.103C63.6484 146.657 63.47 147.567 63.47 148.834H67.6213V148.779C67.6459 148.619 67.6643 148.465 67.6766 148.317C67.6889 148.157 67.6951 148.016 67.6951 147.893C67.6951 146.971 67.5044 146.306 67.1231 145.9C66.7418 145.482 66.2437 145.273 65.6287 145.273ZM74.9347 153.52V154H71.4292V153.52L72.3701 153.41C72.5054 153.397 72.6038 153.379 72.6653 153.354C72.7391 153.317 72.8191 153.25 72.9052 153.151C72.9913 153.041 73.1143 152.862 73.2742 152.616L75.3959 149.554L73.348 146.251C73.2004 146.005 73.0835 145.833 72.9974 145.734C72.9236 145.624 72.8498 145.556 72.776 145.531C72.7145 145.495 72.6223 145.47 72.4993 145.458L71.5399 145.365V144.867H75.8756V145.365L74.9347 145.458C74.7379 145.482 74.6395 145.531 74.6395 145.605C74.6395 145.667 74.7563 145.882 74.99 146.251L76.4107 148.539L77.9789 146.251C78.2249 145.894 78.3418 145.679 78.3295 145.605C78.3295 145.531 78.2372 145.482 78.0527 145.458L77.1118 145.365V144.867H80.6173V145.365L79.6763 145.458C79.5533 145.47 79.4549 145.495 79.3811 145.531C79.3073 145.556 79.2274 145.624 79.1413 145.734C79.0675 145.833 78.9445 146.005 78.7723 146.251L76.7797 149.129L78.9383 152.616C79.0859 152.862 79.1966 153.041 79.2704 153.151C79.3565 153.25 79.4303 153.317 79.4918 153.354C79.5656 153.379 79.664 153.397 79.787 153.41L80.7464 153.52V154H76.4107V153.52L77.3516 153.41C77.5484 153.385 77.6468 153.342 77.6468 153.28C77.6468 153.219 77.53 152.998 77.2963 152.616L75.7649 150.144L74.0675 152.616C73.8215 152.985 73.6985 153.207 73.6985 153.28C73.7108 153.342 73.8092 153.385 73.9937 153.41L74.9347 153.52ZM82.3597 145.347V144.867H85.201V146.343C85.57 145.765 85.982 145.347 86.4371 145.089C86.9045 144.818 87.4211 144.683 87.9869 144.683C89.0447 144.683 89.8627 145.082 90.4408 145.882C91.0312 146.681 91.3264 147.801 91.3264 149.24V149.609C91.3264 151.011 90.9881 152.124 90.3116 152.948C89.6351 153.772 88.6942 154.185 87.4888 154.185C86.6278 154.185 85.8959 153.92 85.2932 153.391V156.435C85.2932 156.854 85.3117 157.1 85.3486 157.173C85.3855 157.26 85.5023 157.315 85.6991 157.339L87.0829 157.432V157.93H82.3597V157.432L83.3744 157.339C83.5712 157.315 83.6881 157.26 83.725 157.173C83.7619 157.1 83.7803 156.854 83.7803 156.435V146.362C83.7803 145.931 83.7619 145.679 83.725 145.605C83.6881 145.531 83.5712 145.482 83.3744 145.458L82.3597 145.347ZM87.7471 145.347C87.3658 145.347 86.966 145.47 86.5478 145.716C86.1419 145.962 85.7237 146.46 85.2932 147.21V152.487C85.8221 153.213 86.5232 153.576 87.3965 153.576C88.196 153.576 88.7741 153.274 89.1308 152.672C89.4875 152.057 89.6659 151.22 89.6659 150.162V148.686C89.6659 147.53 89.4998 146.688 89.1677 146.159C88.8356 145.618 88.3621 145.347 87.7471 145.347ZM101.973 151.897C101.752 152.733 101.334 153.323 100.719 153.668C100.116 154.012 99.4458 154.185 98.7078 154.185C97.3425 154.185 96.3216 153.772 95.6451 152.948C94.9686 152.112 94.6304 150.999 94.6304 149.609V149.24C94.6304 147.862 94.9563 146.761 95.6082 145.937C96.2601 145.101 97.2072 144.683 98.4495 144.683C99.1137 144.683 99.7164 144.818 100.258 145.089C100.811 145.359 101.248 145.759 101.568 146.288C101.9 146.817 102.066 147.475 102.066 148.262C102.066 148.631 102.029 149.018 101.955 149.424H96.2909V149.978C96.2909 151.269 96.4877 152.198 96.8813 152.764C97.2872 153.317 97.9391 153.594 98.837 153.594C99.4028 153.594 99.8702 153.446 100.239 153.151C100.62 152.856 100.873 152.346 100.996 151.62L101.973 151.897ZM98.4495 145.273C97.7238 145.273 97.1826 145.55 96.8259 146.103C96.4692 146.657 96.2909 147.567 96.2909 148.834H100.442V148.779C100.467 148.619 100.485 148.465 100.497 148.317C100.51 148.157 100.516 148.016 100.516 147.893C100.516 146.971 100.325 146.306 99.944 145.9C99.5627 145.482 99.0645 145.273 98.4495 145.273ZM104.73 145.365V144.867H107.571V146.343C108.002 145.765 108.432 145.347 108.863 145.089C109.305 144.818 109.754 144.683 110.209 144.683C110.603 144.683 110.972 144.8 111.316 145.033C111.661 145.267 111.95 145.642 112.184 146.159L110.984 146.878C110.8 146.435 110.591 146.128 110.357 145.956C110.123 145.784 109.865 145.697 109.582 145.697C109.275 145.697 108.967 145.796 108.66 145.993C108.364 146.189 108.032 146.558 107.663 147.1V152.506C107.663 152.936 107.682 153.194 107.719 153.28C107.756 153.354 107.872 153.397 108.069 153.41L109.453 153.52V154H104.73V153.52L105.744 153.41C105.941 153.385 106.058 153.336 106.095 153.262C106.132 153.188 106.15 152.936 106.15 152.506V146.362C106.15 145.931 106.132 145.679 106.095 145.605C106.058 145.531 105.941 145.482 105.744 145.458L104.73 145.365ZM115.919 142.801C115.624 142.801 115.378 142.709 115.181 142.524C114.996 142.327 114.904 142.075 114.904 141.768C114.904 141.472 114.996 141.233 115.181 141.048C115.378 140.864 115.624 140.771 115.919 140.771C116.214 140.771 116.454 140.864 116.638 141.048C116.835 141.233 116.934 141.472 116.934 141.768C116.934 142.075 116.835 142.327 116.638 142.524C116.454 142.709 116.214 142.801 115.919 142.801ZM113.76 145.365V144.867H116.694V152.506C116.694 152.936 116.712 153.188 116.749 153.262C116.786 153.336 116.903 153.385 117.1 153.41L118.114 153.52V154H113.76V153.52L114.775 153.41C114.972 153.385 115.089 153.336 115.125 153.262C115.162 153.188 115.181 152.936 115.181 152.506V146.362C115.181 145.931 115.162 145.679 115.125 145.605C115.089 145.531 114.972 145.482 114.775 145.458L113.76 145.365ZM128.056 151.897C127.834 152.733 127.416 153.323 126.801 153.668C126.198 154.012 125.528 154.185 124.79 154.185C123.425 154.185 122.404 153.772 121.727 152.948C121.051 152.112 120.713 150.999 120.713 149.609V149.24C120.713 147.862 121.039 146.761 121.69 145.937C122.342 145.101 123.289 144.683 124.532 144.683C125.196 144.683 125.799 144.818 126.34 145.089C126.893 145.359 127.33 145.759 127.65 146.288C127.982 146.817 128.148 147.475 128.148 148.262C128.148 148.631 128.111 149.018 128.037 149.424H122.373V149.978C122.373 151.269 122.57 152.198 122.964 152.764C123.369 153.317 124.021 153.594 124.919 153.594C125.485 153.594 125.952 153.446 126.321 153.151C126.703 152.856 126.955 152.346 127.078 151.62L128.056 151.897ZM124.532 145.273C123.806 145.273 123.265 145.55 122.908 146.103C122.551 146.657 122.373 147.567 122.373 148.834H126.524V148.779C126.549 148.619 126.567 148.465 126.58 148.317C126.592 148.157 126.598 148.016 126.598 147.893C126.598 146.971 126.408 146.306 126.026 145.9C125.645 145.482 125.147 145.273 124.532 145.273ZM141.126 153.52V154H136.771V153.52L137.786 153.41C137.983 153.385 138.1 153.336 138.137 153.262C138.174 153.188 138.192 152.936 138.192 152.506V147.911C138.192 147.001 138.044 146.362 137.749 145.993C137.454 145.611 137.03 145.421 136.476 145.421C136.07 145.421 135.621 145.544 135.129 145.79C134.637 146.036 134.176 146.515 133.746 147.229V152.506C133.746 152.936 133.764 153.188 133.801 153.262C133.838 153.336 133.955 153.385 134.151 153.41L135.166 153.52V154H130.812V153.52L131.827 153.41C132.024 153.385 132.14 153.336 132.177 153.262C132.214 153.188 132.233 152.936 132.233 152.506V146.362C132.233 145.931 132.214 145.679 132.177 145.605C132.14 145.531 132.024 145.482 131.827 145.458L130.812 145.365V144.867H133.653V146.362C134.096 145.771 134.594 145.347 135.148 145.089C135.714 144.818 136.279 144.683 136.845 144.683C137.755 144.683 138.456 144.966 138.948 145.531C139.453 146.085 139.705 146.872 139.705 147.893V152.506C139.705 152.936 139.723 153.188 139.76 153.262C139.797 153.336 139.914 153.385 140.111 153.41L141.126 153.52ZM147.439 145.273C146.762 145.273 146.233 145.556 145.852 146.122C145.483 146.675 145.299 147.592 145.299 148.871V149.978C145.299 151.269 145.483 152.198 145.852 152.764C146.233 153.317 146.848 153.594 147.697 153.594C148.275 153.594 148.743 153.446 149.099 153.151C149.456 152.856 149.696 152.346 149.819 151.62L150.797 151.897C150.575 152.733 150.169 153.323 149.579 153.668C148.989 154.012 148.331 154.185 147.605 154.185C146.277 154.185 145.28 153.772 144.616 152.948C143.964 152.112 143.638 150.999 143.638 149.609V149.24C143.638 147.862 143.964 146.761 144.616 145.937C145.268 145.101 146.209 144.683 147.439 144.683C148.226 144.683 148.878 144.836 149.395 145.144C149.923 145.451 150.299 145.87 150.52 146.399C150.741 146.915 150.803 147.487 150.705 148.114L149.247 148.336C149.382 147.352 149.29 146.595 148.97 146.066C148.663 145.538 148.152 145.273 147.439 145.273ZM161.165 151.897C160.943 152.733 160.525 153.323 159.91 153.668C159.308 154.012 158.637 154.185 157.899 154.185C156.534 154.185 155.513 153.772 154.836 152.948C154.16 152.112 153.822 150.999 153.822 149.609V149.24C153.822 147.862 154.148 146.761 154.8 145.937C155.451 145.101 156.399 144.683 157.641 144.683C158.305 144.683 158.908 144.818 159.449 145.089C160.002 145.359 160.439 145.759 160.759 146.288C161.091 146.817 161.257 147.475 161.257 148.262C161.257 148.631 161.22 149.018 161.146 149.424H155.482V149.978C155.482 151.269 155.679 152.198 156.073 152.764C156.479 153.317 157.13 153.594 158.028 153.594C158.594 153.594 159.062 153.446 159.431 153.151C159.812 152.856 160.064 152.346 160.187 151.62L161.165 151.897ZM157.641 145.273C156.915 145.273 156.374 145.55 156.017 146.103C155.661 146.657 155.482 147.567 155.482 148.834H159.633V148.779C159.658 148.619 159.677 148.465 159.689 148.317C159.701 148.157 159.707 148.016 159.707 147.893C159.707 146.971 159.517 146.306 159.135 145.9C158.754 145.482 158.256 145.273 157.641 145.273Z" fill="#180A0B"/>
</svg>
