<svg width="223" height="169" viewBox="0 0 223 169" fill="none" xmlns="http://www.w3.org/2000/svg">
<path d="M92.75 7.5H122.75C123.745 7.5 124.698 7.89509 125.402 8.59835C126.105 9.30161 126.5 10.2554 126.5 11.25V33.75C126.5 34.7446 126.105 35.6984 125.402 36.4016C124.698 37.1049 123.745 37.5 122.75 37.5H100.25C99.2554 37.5 98.3016 37.1049 97.5983 36.4016C96.8951 35.6984 96.5 34.7446 96.5 33.75V22.5M111.5 16.875V7.5M104 15H94.625" stroke="#501B1F" stroke-width="1.5" stroke-linecap="round" stroke-linejoin="round"/>
<path d="M59.6823 89.3388C60.7403 89.3388 61.6131 89.0919 62.3008 88.5981C63.0062 88.0868 63.3588 87.2933 63.3588 86.2176C63.3588 85.4241 63.1208 84.7629 62.6447 84.2339C62.1862 83.7049 61.3574 83.2641 60.1584 82.9114L57.6985 82.1708C56.4642 81.8005 55.512 81.1657 54.8419 80.2664C54.1895 79.3495 53.8633 78.2121 53.8633 76.8544C53.8633 75.955 54.0661 75.1175 54.4716 74.3416C54.8948 73.5657 55.5296 72.9397 56.376 72.4636C57.2401 71.9875 58.3245 71.7495 59.6294 71.7495C61.0577 71.7495 62.2127 72.014 63.0943 72.543C63.976 73.0544 64.5932 73.7244 64.9458 74.5532C65.2985 75.382 65.3867 76.2725 65.2103 77.2247L62.1686 77.7801C62.4507 76.1402 62.3273 74.8794 61.7983 73.9978C61.2869 73.1161 60.4493 72.6752 59.2855 72.6752C58.3862 72.6752 57.6633 72.9398 57.1166 73.4688C56.5876 73.9978 56.3231 74.756 56.3231 75.7434C56.3231 76.5546 56.5524 77.2687 57.0108 77.8859C57.4869 78.5031 58.2628 78.9792 59.3384 79.3142L61.7983 80.0548C63.1384 80.4427 64.1435 81.0335 64.8136 81.8269C65.4836 82.6028 65.8187 83.6873 65.8187 85.0803C65.8187 86.0678 65.5894 86.9582 65.131 87.7518C64.6901 88.5276 64.0113 89.1448 63.0943 89.6033C62.195 90.0441 61.0665 90.2645 59.7087 90.2645C58.7213 90.2645 57.7867 90.1234 56.905 89.8413C56.0234 89.5415 55.2828 89.0566 54.6832 88.3865C54.1013 87.7165 53.731 86.8084 53.5723 85.6622L55.3445 85.0274C55.4326 86.1559 55.6795 87.0376 56.0851 87.6724C56.5083 88.2896 57.0285 88.7216 57.6456 88.9685C58.2804 89.2153 58.9593 89.3388 59.6823 89.3388ZM84.5856 89.2594V90H77.4705V89.2594L78.9253 89.0743C79.2074 89.039 79.3749 88.9685 79.4278 88.8627C79.4807 88.7392 79.5072 88.3777 79.5072 87.7782V81.1128C79.5072 79.8961 79.322 79.0144 78.9517 78.4678C78.5991 77.9035 78.0701 77.6214 77.3647 77.6214C77.065 77.6214 76.7123 77.7007 76.3067 77.8594C75.9188 78.0005 75.522 78.265 75.1165 78.6529C74.7285 79.0409 74.3847 79.614 74.0849 80.3722V87.7782C74.0849 88.3777 74.1114 88.7392 74.1643 88.8627C74.2172 88.9685 74.3847 89.039 74.6668 89.0743L76.1216 89.2594V90H69.0065V89.2594L70.4613 89.0743C70.7434 89.039 70.9109 88.9685 70.9638 88.8627C71.0167 88.7392 71.0432 88.3777 71.0432 87.7782V72.6488C71.0432 72.0493 71.0167 71.6966 70.9638 71.5908C70.9109 71.4674 70.7434 71.388 70.4613 71.3527L69.0065 71.1676V70.427H74.0849V78.6529C74.5963 77.8418 75.2311 77.2511 75.9893 76.8808C76.7652 76.5105 77.5411 76.3254 78.3169 76.3254C79.6218 76.3254 80.6533 76.7397 81.4116 77.5685C82.1698 78.3973 82.5489 79.5699 82.5489 81.0864V87.7782C82.5489 88.3777 82.5754 88.7392 82.6283 88.8627C82.6812 88.9685 82.8487 89.039 83.1308 89.0743L84.5856 89.2594ZM90.3573 74.3151C89.8106 74.3151 89.3698 74.1476 89.0348 73.8126C88.6997 73.4599 88.5322 73.0103 88.5322 72.4636C88.5322 71.917 88.6997 71.4762 89.0348 71.1411C89.3698 70.8061 89.8106 70.6386 90.3573 70.6386C90.8863 70.6386 91.3271 70.8061 91.6798 71.1411C92.0324 71.4762 92.2088 71.917 92.2088 72.4636C92.2088 73.0103 92.0324 73.4599 91.6798 73.8126C91.3271 74.1476 90.8863 74.3151 90.3573 74.3151ZM86.813 77.3304V76.5898H91.8914V87.7782C91.8914 88.3777 91.9178 88.7392 91.9707 88.8627C92.0236 88.9685 92.1911 89.039 92.4733 89.0743L93.928 89.2594V90H86.813V89.2594L88.2677 89.0743C88.5498 89.039 88.7174 88.9685 88.7703 88.8627C88.8232 88.7392 88.8496 88.3777 88.8496 87.7782V78.8117C88.8496 78.2121 88.8232 77.8594 88.7703 77.7536C88.7174 77.6302 88.5498 77.5509 88.2677 77.5156L86.813 77.3304ZM96.0868 77.3304V76.5898H101.006V78.7852C101.518 77.9564 102.073 77.3393 102.673 76.9337C103.272 76.5281 103.987 76.3254 104.815 76.3254C106.296 76.3254 107.469 76.9161 108.333 78.0975C109.215 79.2613 109.656 80.9012 109.656 83.0172V83.5462C109.656 85.5917 109.153 87.2227 108.148 88.4394C107.143 89.6561 105.75 90.2645 103.969 90.2645C102.911 90.2645 101.976 90 101.165 89.471V93.4121C101.165 94.0116 101.192 94.3642 101.245 94.4701C101.297 94.5935 101.465 94.6728 101.747 94.7081L103.731 94.8932V95.6339H96.0868V94.8932L97.5415 94.7081C97.8237 94.6728 97.9912 94.5935 98.0441 94.4701C98.097 94.3642 98.1234 94.0116 98.1234 93.4121V78.8117C98.1234 78.2121 98.097 77.8594 98.0441 77.7536C97.9912 77.6302 97.8237 77.5509 97.5415 77.5156L96.0868 77.3304ZM104.128 77.4892C103.687 77.4892 103.219 77.6743 102.726 78.0446C102.25 78.3973 101.729 79.1291 101.165 80.2399V88.2279C101.835 88.8979 102.655 89.233 103.625 89.233C104.612 89.233 105.318 88.8009 105.741 87.9369C106.182 87.0552 106.402 85.8562 106.402 84.3397V82.2237C106.402 80.5838 106.199 79.3847 105.794 78.6265C105.388 77.8683 104.833 77.4892 104.128 77.4892ZM112.881 77.3304V76.5898H117.801V78.7852C118.313 77.9564 118.868 77.3393 119.468 76.9337C120.067 76.5281 120.781 76.3254 121.61 76.3254C123.091 76.3254 124.264 76.9161 125.128 78.0975C126.01 79.2613 126.45 80.9012 126.45 83.0172V83.5462C126.45 85.5917 125.948 87.2227 124.943 88.4394C123.938 89.6561 122.545 90.2645 120.764 90.2645C119.706 90.2645 118.771 90 117.96 89.471V93.4121C117.96 94.0116 117.986 94.3642 118.039 94.4701C118.092 94.5935 118.26 94.6728 118.542 94.7081L120.526 94.8932V95.6339H112.881V94.8932L114.336 94.7081C114.618 94.6728 114.786 94.5935 114.839 94.4701C114.892 94.3642 114.918 94.0116 114.918 93.4121V78.8117C114.918 78.2121 114.892 77.8594 114.839 77.7536C114.786 77.6302 114.618 77.5509 114.336 77.5156L112.881 77.3304ZM120.922 77.4892C120.481 77.4892 120.014 77.6743 119.52 78.0446C119.044 78.3973 118.524 79.1291 117.96 80.2399V88.2279C118.63 88.8979 119.45 89.233 120.42 89.233C121.407 89.233 122.113 88.8009 122.536 87.9369C122.977 87.0552 123.197 85.8562 123.197 84.3397V82.2237C123.197 80.5838 122.994 79.3847 122.589 78.6265C122.183 77.8683 121.628 77.4892 120.922 77.4892ZM133.406 74.3151C132.859 74.3151 132.418 74.1476 132.083 73.8126C131.748 73.4599 131.581 73.0103 131.581 72.4636C131.581 71.917 131.748 71.4762 132.083 71.1411C132.418 70.8061 132.859 70.6386 133.406 70.6386C133.935 70.6386 134.375 70.8061 134.728 71.1411C135.081 71.4762 135.257 71.917 135.257 72.4636C135.257 73.0103 135.081 73.4599 134.728 73.8126C134.375 74.1476 133.935 74.3151 133.406 74.3151ZM129.861 77.3304V76.5898H134.94V87.7782C134.94 88.3777 134.966 88.7392 135.019 88.8627C135.072 88.9685 135.24 89.039 135.522 89.0743L136.976 89.2594V90H129.861V89.2594L131.316 89.0743C131.598 89.039 131.766 88.9685 131.819 88.8627C131.872 88.7392 131.898 88.3777 131.898 87.7782V78.8117C131.898 78.2121 131.872 77.8594 131.819 77.7536C131.766 77.6302 131.598 77.5509 131.316 77.5156L129.861 77.3304ZM154.899 89.2594V90H147.784V89.2594L149.239 89.0743C149.521 89.039 149.689 88.9685 149.742 88.8627C149.795 88.7392 149.821 88.3777 149.821 87.7782V81.1128C149.821 79.8961 149.636 79.0144 149.266 78.4678C148.913 77.9035 148.384 77.6214 147.679 77.6214C147.379 77.6214 147.026 77.7007 146.621 77.8594C146.233 78.0005 145.836 78.265 145.43 78.6529C145.042 79.0409 144.698 79.614 144.399 80.3722V87.7782C144.399 88.3777 144.425 88.7392 144.478 88.8627C144.531 88.9685 144.698 89.039 144.981 89.0743L146.435 89.2594V90H139.32V89.2594L140.775 89.0743C141.057 89.039 141.225 88.9685 141.278 88.8627C141.331 88.7392 141.357 88.3777 141.357 87.7782V78.8117C141.357 78.2121 141.331 77.8594 141.278 77.7536C141.225 77.6302 141.057 77.5509 140.775 77.5156L139.32 77.3304V76.5898H144.24V78.9174C144.751 78.0181 145.404 77.3657 146.197 76.9601C147.008 76.5369 147.82 76.3254 148.631 76.3254C149.936 76.3254 150.967 76.7397 151.725 77.5685C152.484 78.3973 152.863 79.5699 152.863 81.0864V87.7782C152.863 88.3777 152.889 88.7392 152.942 88.8627C152.995 88.9685 153.162 89.039 153.445 89.0743L154.899 89.2594ZM170.03 91.3754C170.03 92.8213 169.483 93.9322 168.39 94.7081C167.314 95.5016 165.833 95.8983 163.947 95.8983C161.866 95.8983 160.314 95.5545 159.291 94.8668C158.269 94.1967 157.713 93.3592 157.625 92.354L160.455 91.9044C160.385 92.839 160.605 93.5796 161.116 94.1262C161.645 94.6905 162.589 94.9726 163.947 94.9726C165.216 94.9726 166.239 94.7346 167.015 94.2585C167.808 93.7824 168.205 93.0946 168.205 92.1954C168.205 91.5606 167.967 91.0756 167.491 90.7406C167.032 90.4232 166.265 90.2645 165.19 90.2645H162.174C161.24 90.2645 160.499 90.1323 159.953 89.8677C159.424 89.6032 159.053 89.277 158.842 88.8891C158.63 88.4835 158.524 88.0691 158.524 87.646C158.524 87.1346 158.665 86.632 158.947 86.1383C159.23 85.6269 159.715 85.1244 160.402 84.6306C159.644 84.2956 159.027 83.8019 158.551 83.1495C158.075 82.497 157.837 81.6859 157.837 80.7161C157.837 79.7286 158.066 78.9175 158.524 78.2827C158.983 77.6302 159.6 77.1453 160.376 76.8279C161.152 76.4929 162.016 76.3254 162.968 76.3254H163.418C164.44 76.3254 165.322 76.4929 166.063 76.8279L169.871 74.95L170.189 77.5421H167.173C167.597 77.9124 167.923 78.362 168.152 78.891C168.399 79.4024 168.522 80.0107 168.522 80.7161C168.522 81.6682 168.293 82.4706 167.835 83.123C167.376 83.7754 166.759 84.2692 165.983 84.6042C165.225 84.9392 164.37 85.1068 163.418 85.1068H162.968C162.439 85.1068 161.919 85.0539 161.407 84.948C160.966 85.2478 160.658 85.5388 160.482 85.8209C160.323 86.0854 160.244 86.3411 160.244 86.5879C160.244 86.8701 160.367 87.0817 160.614 87.2228C160.878 87.3638 161.302 87.4344 161.883 87.4344H165.322C166.838 87.4344 168.002 87.7782 168.813 88.4659C169.624 89.136 170.03 90.1058 170.03 91.3754ZM163.418 84.181C163.982 84.181 164.467 83.9341 164.872 83.4404C165.278 82.9467 165.481 82.0385 165.481 80.7161C165.481 79.3935 165.278 78.4854 164.872 77.9917C164.467 77.498 163.982 77.2511 163.418 77.2511H162.968C162.404 77.2511 161.91 77.498 161.487 77.9917C161.081 78.4854 160.878 79.3935 160.878 80.7161C160.878 82.0385 161.081 82.9467 161.487 83.4404C161.91 83.9341 162.404 84.181 162.968 84.181H163.418Z" fill="#180A0B"/>
<path d="M41.2065 123.679H41.6862V127.996H41.2065L40.856 126.613C40.8191 126.465 40.776 126.36 40.7268 126.299C40.6899 126.225 40.61 126.182 40.487 126.17C40.364 126.145 40.1549 126.133 39.8597 126.133H37.5719V130.506C37.5719 130.936 37.5903 131.194 37.6272 131.28C37.6641 131.354 37.781 131.397 37.9778 131.41L39.3615 131.52V132H34.5461V131.52L35.5608 131.41C35.7576 131.385 35.8745 131.336 35.9114 131.262C35.9483 131.188 35.9667 130.936 35.9667 130.506V120.948C35.9667 120.518 35.9483 120.266 35.9114 120.192C35.8745 120.118 35.7576 120.069 35.5608 120.044L34.5461 119.952V119.454H42.9777V122.461H42.498L41.963 120.524C41.9138 120.315 41.84 120.186 41.7416 120.137C41.6555 120.075 41.3972 120.044 40.9667 120.044H37.5719V125.542H39.8597C40.1549 125.542 40.364 125.536 40.487 125.524C40.61 125.499 40.6899 125.456 40.7268 125.395C40.776 125.321 40.8191 125.21 40.856 125.063L41.2065 123.679ZM52.3254 132.129C51.366 132.129 50.8002 131.686 50.628 130.801C50.1975 131.293 49.7239 131.649 49.2073 131.871C48.6907 132.08 48.1803 132.185 47.676 132.185C46.815 132.185 46.1815 131.945 45.7756 131.465C45.3697 130.985 45.1668 130.407 45.1668 129.731C45.1668 129.005 45.4128 128.433 45.9048 128.015C46.4091 127.584 47.2762 127.369 48.5062 127.369H50.5911V125.875C50.5911 124.891 50.4189 124.214 50.0745 123.845C49.7424 123.464 49.2873 123.273 48.7092 123.273C48.3402 123.273 48.0081 123.347 47.7129 123.495C47.4177 123.642 47.2024 123.913 47.0671 124.306C46.9441 124.688 46.9318 125.247 47.0302 125.985L45.5727 125.764C45.5112 125.186 45.585 124.669 45.7941 124.214C46.0155 123.747 46.3722 123.378 46.8642 123.107C47.3685 122.824 47.9958 122.683 48.7461 122.683C49.644 122.683 50.3328 122.836 50.8125 123.144C51.2922 123.439 51.6243 123.827 51.8088 124.306C52.0056 124.786 52.104 125.309 52.104 125.875V130.026C52.104 130.653 52.1716 131.047 52.3069 131.207C52.4545 131.367 52.6144 131.446 52.7866 131.446C52.8973 131.446 53.0142 131.422 53.1372 131.373C53.2602 131.311 53.3955 131.219 53.5431 131.096L53.8752 131.557C53.6907 131.717 53.4693 131.852 53.211 131.963C52.965 132.074 52.6698 132.129 52.3254 132.129ZM48.1926 131.41C48.537 131.41 48.906 131.317 49.2996 131.133C49.7055 130.936 50.136 130.549 50.5911 129.97V127.959H48.7092C48.0204 127.959 47.5161 128.101 47.1963 128.384C46.8888 128.654 46.735 129.079 46.735 129.657C46.735 130.21 46.8519 130.641 47.0856 130.948C47.3316 131.256 47.7006 131.41 48.1926 131.41ZM59.5031 128.273L58.3777 127.996C56.8402 127.603 56.0714 126.717 56.0714 125.34C56.0714 124.884 56.176 124.454 56.3851 124.048C56.5942 123.642 56.9263 123.316 57.3814 123.07C57.8488 122.812 58.4453 122.683 59.171 122.683C59.9828 122.683 60.6347 122.818 61.1267 123.089C61.6187 123.359 61.9631 123.71 62.1599 124.14C62.3567 124.571 62.4182 125.038 62.3444 125.542L60.9053 125.801C61.0529 125.001 60.9668 124.38 60.647 123.937C60.3395 123.495 59.8291 123.273 59.1157 123.273C58.5622 123.273 58.1194 123.415 57.7873 123.697C57.4552 123.968 57.2891 124.368 57.2891 124.897C57.2891 125.29 57.4121 125.641 57.6581 125.948C57.9041 126.244 58.3162 126.465 58.8943 126.613L60.0566 126.889C60.8684 127.086 61.4957 127.4 61.9385 127.83C62.3936 128.261 62.6212 128.827 62.6212 129.528C62.6212 130.315 62.3321 130.954 61.754 131.446C61.1882 131.938 60.3764 132.185 59.3186 132.185C58.8143 132.185 58.3223 132.111 57.8426 131.963C57.3752 131.803 56.9632 131.557 56.6065 131.225C56.2621 130.881 56.0099 130.438 55.85 129.897L56.8832 129.528C57.0185 130.303 57.3137 130.844 57.7688 131.151C58.2239 131.459 58.7467 131.613 59.3371 131.613C59.6815 131.613 60.0074 131.557 60.3149 131.446C60.6347 131.336 60.893 131.164 61.0898 130.93C61.2866 130.684 61.385 130.37 61.385 129.989C61.385 129.595 61.2497 129.257 60.9791 128.974C60.7085 128.691 60.2165 128.458 59.5031 128.273ZM71.3597 130.118C71.1752 130.831 70.8862 131.354 70.4926 131.686C70.099 132.018 69.5947 132.185 68.9797 132.185C68.3893 132.185 67.9096 132.055 67.5406 131.797C67.1716 131.526 66.901 131.176 66.7288 130.745C66.5566 130.315 66.4705 129.866 66.4705 129.399V124.362C66.4705 123.931 66.452 123.679 66.4151 123.605C66.3905 123.531 66.2737 123.482 66.0646 123.458L65.0498 123.365V122.867H66.4705V120.45L67.9834 120.137V122.867H70.9907V123.458H67.9834V129.546C67.9834 130.321 68.0879 130.856 68.297 131.151C68.5184 131.446 68.8075 131.594 69.1642 131.594C69.5209 131.594 69.7915 131.459 69.976 131.188C70.1728 130.918 70.3142 130.475 70.4003 129.86L71.3597 130.118ZM86.0327 132.129C85.0733 132.129 84.5075 131.686 84.3353 130.801C83.9048 131.293 83.4312 131.649 82.9146 131.871C82.398 132.08 81.8876 132.185 81.3833 132.185C80.5223 132.185 79.8888 131.945 79.4829 131.465C79.077 130.985 78.8741 130.407 78.8741 129.731C78.8741 129.005 79.1201 128.433 79.6121 128.015C80.1164 127.584 80.9835 127.369 82.2135 127.369H84.2984V125.875C84.2984 124.891 84.1262 124.214 83.7818 123.845C83.4497 123.464 82.9946 123.273 82.4165 123.273C82.0475 123.273 81.7154 123.347 81.4202 123.495C81.125 123.642 80.9097 123.913 80.7744 124.306C80.6514 124.688 80.6391 125.247 80.7375 125.985L79.28 125.764C79.2185 125.186 79.2923 124.669 79.5014 124.214C79.7228 123.747 80.0795 123.378 80.5715 123.107C81.0758 122.824 81.7031 122.683 82.4534 122.683C83.3513 122.683 84.0401 122.836 84.5198 123.144C84.9995 123.439 85.3316 123.827 85.5161 124.306C85.7129 124.786 85.8113 125.309 85.8113 125.875V130.026C85.8113 130.653 85.8789 131.047 86.0142 131.207C86.1618 131.367 86.3217 131.446 86.4939 131.446C86.6046 131.446 86.7215 131.422 86.8445 131.373C86.9675 131.311 87.1028 131.219 87.2504 131.096L87.5825 131.557C87.398 131.717 87.1766 131.852 86.9183 131.963C86.6723 132.074 86.3771 132.129 86.0327 132.129ZM81.8999 131.41C82.2443 131.41 82.6133 131.317 83.0069 131.133C83.4128 130.936 83.8433 130.549 84.2984 129.97V127.959H82.4165C81.7277 127.959 81.2234 128.101 80.9036 128.384C80.5961 128.654 80.4423 129.079 80.4423 129.657C80.4423 130.21 80.5592 130.641 80.7929 130.948C81.0389 131.256 81.4079 131.41 81.8999 131.41ZM99.631 131.52V132H95.2768V131.52L96.2916 131.41C96.4884 131.385 96.6052 131.336 96.6421 131.262C96.679 131.188 96.6975 130.936 96.6975 130.506V125.911C96.6975 125.001 96.5499 124.362 96.2547 123.993C95.9595 123.611 95.5351 123.421 94.9816 123.421C94.5757 123.421 94.1268 123.544 93.6348 123.79C93.1428 124.036 92.6815 124.515 92.251 125.229V130.506C92.251 130.936 92.2695 131.188 92.3064 131.262C92.3433 131.336 92.4601 131.385 92.6569 131.41L93.6717 131.52V132H89.3175V131.52L90.3322 131.41C90.529 131.385 90.6459 131.336 90.6828 131.262C90.7197 131.188 90.7381 130.936 90.7381 130.506V124.362C90.7381 123.931 90.7197 123.679 90.6828 123.605C90.6459 123.531 90.529 123.482 90.3322 123.458L89.3175 123.365V122.867H92.1588V124.362C92.6016 123.771 93.0997 123.347 93.6532 123.089C94.219 122.818 94.7848 122.683 95.3506 122.683C96.2608 122.683 96.9619 122.966 97.4539 123.531C97.9582 124.085 98.2104 124.872 98.2104 125.893V130.506C98.2104 130.936 98.2288 131.188 98.2657 131.262C98.3026 131.336 98.4195 131.385 98.6163 131.41L99.631 131.52ZM111.166 131.539V132H108.324V130.542C107.943 131.108 107.519 131.526 107.051 131.797C106.596 132.055 106.086 132.185 105.52 132.185C104.462 132.185 103.638 131.791 103.048 131.004C102.47 130.204 102.181 129.079 102.181 127.627V127.258C102.181 125.868 102.519 124.761 103.195 123.937C103.884 123.101 104.825 122.683 106.018 122.683C106.891 122.683 107.629 122.953 108.232 123.495V119.841C108.232 119.411 108.214 119.159 108.177 119.085C108.14 119.011 108.023 118.962 107.826 118.937L106.812 118.845V118.347H109.745V130.506C109.745 130.936 109.764 131.188 109.8 131.262C109.837 131.336 109.954 131.385 110.151 131.41L111.166 131.539ZM103.841 128.181C103.841 129.337 104.007 130.186 104.339 130.727C104.684 131.268 105.157 131.539 105.76 131.539C106.153 131.539 106.559 131.416 106.978 131.17C107.396 130.924 107.814 130.426 108.232 129.675V124.399C107.691 123.673 106.984 123.31 106.11 123.31C105.323 123.31 104.745 123.611 104.376 124.214C104.019 124.817 103.841 125.647 103.841 126.705V128.181ZM118.355 123.365V122.867H121.196V124.343C121.626 123.765 122.057 123.347 122.487 123.089C122.93 122.818 123.379 122.683 123.834 122.683C124.228 122.683 124.597 122.8 124.941 123.033C125.286 123.267 125.575 123.642 125.808 124.159L124.609 124.878C124.425 124.435 124.216 124.128 123.982 123.956C123.748 123.784 123.49 123.697 123.207 123.697C122.899 123.697 122.592 123.796 122.284 123.993C121.989 124.189 121.657 124.558 121.288 125.1V130.506C121.288 130.936 121.307 131.194 121.344 131.28C121.38 131.354 121.497 131.397 121.694 131.41L123.078 131.52V132H118.355V131.52L119.369 131.41C119.566 131.385 119.683 131.336 119.72 131.262C119.757 131.188 119.775 130.936 119.775 130.506V124.362C119.775 123.931 119.757 123.679 119.72 123.605C119.683 123.531 119.566 123.482 119.369 123.458L118.355 123.365ZM135.137 129.897C134.915 130.733 134.497 131.323 133.882 131.668C133.279 132.012 132.609 132.185 131.871 132.185C130.506 132.185 129.485 131.772 128.808 130.948C128.132 130.112 127.794 128.999 127.794 127.609V127.24C127.794 125.862 128.119 124.761 128.771 123.937C129.423 123.101 130.37 122.683 131.613 122.683C132.277 122.683 132.88 122.818 133.421 123.089C133.974 123.359 134.411 123.759 134.731 124.288C135.063 124.817 135.229 125.475 135.229 126.262C135.229 126.631 135.192 127.018 135.118 127.424H129.454V127.978C129.454 129.269 129.651 130.198 130.044 130.764C130.45 131.317 131.102 131.594 132 131.594C132.566 131.594 133.033 131.446 133.402 131.151C133.784 130.856 134.036 130.346 134.159 129.62L135.137 129.897ZM131.613 123.273C130.887 123.273 130.346 123.55 129.989 124.103C129.632 124.657 129.454 125.567 129.454 126.834H133.605V126.779C133.63 126.619 133.648 126.465 133.661 126.317C133.673 126.157 133.679 126.016 133.679 125.893C133.679 124.971 133.488 124.306 133.107 123.9C132.726 123.482 132.228 123.273 131.613 123.273ZM137.764 118.845V118.347H140.697V130.506C140.697 130.936 140.716 131.188 140.753 131.262C140.79 131.336 140.906 131.385 141.103 131.41L142.118 131.52V132H137.764V131.52L138.778 131.41C138.975 131.385 139.092 131.336 139.129 131.262C139.166 131.188 139.184 130.936 139.184 130.506V119.841C139.184 119.411 139.166 119.159 139.129 119.085C139.092 119.011 138.975 118.962 138.778 118.937L137.764 118.845ZM146.379 120.801C146.084 120.801 145.838 120.709 145.641 120.524C145.457 120.327 145.365 120.075 145.365 119.768C145.365 119.472 145.457 119.233 145.641 119.048C145.838 118.864 146.084 118.771 146.379 118.771C146.674 118.771 146.914 118.864 147.099 119.048C147.296 119.233 147.394 119.472 147.394 119.768C147.394 120.075 147.296 120.327 147.099 120.524C146.914 120.709 146.674 120.801 146.379 120.801ZM144.221 123.365V122.867H147.154V130.506C147.154 130.936 147.173 131.188 147.21 131.262C147.246 131.336 147.363 131.385 147.56 131.41L148.575 131.52V132H144.221V131.52L145.235 131.41C145.432 131.385 145.549 131.336 145.586 131.262C145.623 131.188 145.641 130.936 145.641 130.506V124.362C145.641 123.931 145.623 123.679 145.586 123.605C145.549 123.531 145.432 123.482 145.235 123.458L144.221 123.365ZM158.258 132.129C157.299 132.129 156.733 131.686 156.561 130.801C156.13 131.293 155.656 131.649 155.14 131.871C154.623 132.08 154.113 132.185 153.609 132.185C152.748 132.185 152.114 131.945 151.708 131.465C151.302 130.985 151.099 130.407 151.099 129.731C151.099 129.005 151.345 128.433 151.837 128.015C152.342 127.584 153.209 127.369 154.439 127.369H156.524V125.875C156.524 124.891 156.351 124.214 156.007 123.845C155.675 123.464 155.22 123.273 154.642 123.273C154.273 123.273 153.941 123.347 153.645 123.495C153.35 123.642 153.135 123.913 153 124.306C152.877 124.688 152.864 125.247 152.963 125.985L151.505 125.764C151.444 125.186 151.518 124.669 151.727 124.214C151.948 123.747 152.305 123.378 152.797 123.107C153.301 122.824 153.928 122.683 154.679 122.683C155.577 122.683 156.265 122.836 156.745 123.144C157.225 123.439 157.557 123.827 157.741 124.306C157.938 124.786 158.037 125.309 158.037 125.875V130.026C158.037 130.653 158.104 131.047 158.239 131.207C158.387 131.367 158.547 131.446 158.719 131.446C158.83 131.446 158.947 131.422 159.07 131.373C159.193 131.311 159.328 131.219 159.476 131.096L159.808 131.557C159.623 131.717 159.402 131.852 159.144 131.963C158.898 132.074 158.602 132.129 158.258 132.129ZM154.125 131.41C154.47 131.41 154.839 131.317 155.232 131.133C155.638 130.936 156.069 130.549 156.524 129.97V127.959H154.642C153.953 127.959 153.449 128.101 153.129 128.384C152.821 128.654 152.668 129.079 152.668 129.657C152.668 130.21 152.784 130.641 153.018 130.948C153.264 131.256 153.633 131.41 154.125 131.41ZM161.284 118.845V118.347H164.218V124.196C164.575 123.667 164.981 123.285 165.436 123.052C165.891 122.806 166.383 122.683 166.912 122.683C167.97 122.683 168.787 123.082 169.366 123.882C169.956 124.681 170.251 125.801 170.251 127.24V127.609C170.251 129.011 169.913 130.124 169.236 130.948C168.572 131.772 167.637 132.185 166.432 132.185C165.473 132.185 164.685 131.871 164.07 131.244C163.898 131.342 163.738 131.465 163.591 131.613C163.443 131.76 163.296 131.92 163.148 132.092H162.705V119.841C162.705 119.411 162.687 119.159 162.65 119.085C162.613 119.011 162.496 118.962 162.299 118.937L161.284 118.845ZM166.672 123.347C166.291 123.347 165.891 123.47 165.473 123.716C165.067 123.962 164.649 124.46 164.218 125.21V130.487C164.747 131.213 165.448 131.576 166.321 131.576C167.121 131.576 167.699 131.274 168.056 130.672C168.412 130.057 168.591 129.22 168.591 128.162V126.686C168.591 125.53 168.425 124.688 168.093 124.159C167.76 123.618 167.287 123.347 166.672 123.347ZM172.912 118.845V118.347H175.846V130.506C175.846 130.936 175.864 131.188 175.901 131.262C175.938 131.336 176.055 131.385 176.252 131.41L177.267 131.52V132H172.912V131.52L173.927 131.41C174.124 131.385 174.241 131.336 174.278 131.262C174.315 131.188 174.333 130.936 174.333 130.506V119.841C174.333 119.411 174.315 119.159 174.278 119.085C174.241 119.011 174.124 118.962 173.927 118.937L172.912 118.845ZM187.229 129.897C187.008 130.733 186.589 131.323 185.974 131.668C185.372 132.012 184.701 132.185 183.963 132.185C182.598 132.185 181.577 131.772 180.901 130.948C180.224 130.112 179.886 128.999 179.886 127.609V127.24C179.886 125.862 180.212 124.761 180.864 123.937C181.516 123.101 182.463 122.683 183.705 122.683C184.369 122.683 184.972 122.818 185.513 123.089C186.067 123.359 186.503 123.759 186.823 124.288C187.155 124.817 187.321 125.475 187.321 126.262C187.321 126.631 187.284 127.018 187.211 127.424H181.546V127.978C181.546 129.269 181.743 130.198 182.137 130.764C182.543 131.317 183.195 131.594 184.093 131.594C184.658 131.594 185.126 131.446 185.495 131.151C185.876 130.856 186.128 130.346 186.251 129.62L187.229 129.897ZM183.705 123.273C182.979 123.273 182.438 123.55 182.081 124.103C181.725 124.657 181.546 125.567 181.546 126.834H185.698V126.779C185.722 126.619 185.741 126.465 185.753 126.317C185.765 126.157 185.771 126.016 185.771 125.893C185.771 124.971 185.581 124.306 185.2 123.9C184.818 123.482 184.32 123.273 183.705 123.273ZM70.5254 153.52V154H66.1712V153.52L67.186 153.41C67.3828 153.385 67.4996 153.336 67.5365 153.262C67.5734 153.188 67.5919 152.936 67.5919 152.506V147.911C67.5919 147.001 67.4443 146.362 67.1491 145.993C66.8539 145.611 66.4295 145.421 65.876 145.421C65.4701 145.421 65.0212 145.544 64.5292 145.79C64.0372 146.036 63.5759 146.515 63.1454 147.229V152.506C63.1454 152.936 63.1639 153.188 63.2008 153.262C63.2377 153.336 63.3545 153.385 63.5513 153.41L64.5661 153.52V154H60.2119V153.52L61.2266 153.41C61.4234 153.385 61.5403 153.336 61.5772 153.262C61.6141 153.188 61.6325 152.936 61.6325 152.506V146.362C61.6325 145.931 61.6141 145.679 61.5772 145.605C61.5403 145.531 61.4234 145.482 61.2266 145.458L60.2119 145.365V144.867H63.0532V146.362C63.496 145.771 63.9941 145.347 64.5476 145.089C65.1134 144.818 65.6792 144.683 66.245 144.683C67.1552 144.683 67.8563 144.966 68.3483 145.531C68.8526 146.085 69.1048 146.872 69.1048 147.893V152.506C69.1048 152.936 69.1232 153.188 69.1601 153.262C69.197 153.336 69.3139 153.385 69.5107 153.41L70.5254 153.52ZM80.1229 154.129C79.1635 154.129 78.5977 153.686 78.4255 152.801C77.995 153.293 77.5214 153.649 77.0048 153.871C76.4882 154.08 75.9778 154.185 75.4735 154.185C74.6125 154.185 73.979 153.945 73.5731 153.465C73.1672 152.985 72.9643 152.407 72.9643 151.731C72.9643 151.005 73.2103 150.433 73.7023 150.015C74.2066 149.584 75.0737 149.369 76.3037 149.369H78.3886V147.875C78.3886 146.891 78.2164 146.214 77.872 145.845C77.5399 145.464 77.0848 145.273 76.5067 145.273C76.1377 145.273 75.8056 145.347 75.5104 145.495C75.2152 145.642 74.9999 145.913 74.8646 146.306C74.7416 146.688 74.7293 147.247 74.8277 147.985L73.3702 147.764C73.3087 147.186 73.3825 146.669 73.5916 146.214C73.813 145.747 74.1697 145.378 74.6617 145.107C75.166 144.824 75.7933 144.683 76.5436 144.683C77.4415 144.683 78.1303 144.836 78.61 145.144C79.0897 145.439 79.4218 145.827 79.6063 146.306C79.8031 146.786 79.9015 147.309 79.9015 147.875V152.026C79.9015 152.653 79.9691 153.047 80.1044 153.207C80.252 153.367 80.4119 153.446 80.5841 153.446C80.6948 153.446 80.8117 153.422 80.9347 153.373C81.0577 153.311 81.193 153.219 81.3406 153.096L81.6727 153.557C81.4882 153.717 81.2668 153.852 81.0085 153.963C80.7625 154.074 80.4673 154.129 80.1229 154.129ZM75.9901 153.41C76.3345 153.41 76.7035 153.317 77.0971 153.133C77.503 152.936 77.9335 152.549 78.3886 151.97V149.959H76.5067C75.8179 149.959 75.3136 150.101 74.9938 150.384C74.6863 150.654 74.5325 151.079 74.5325 151.657C74.5325 152.21 74.6494 152.641 74.8831 152.948C75.1291 153.256 75.4981 153.41 75.9901 153.41ZM89.4962 152.118C89.3117 152.831 89.0227 153.354 88.6291 153.686C88.2355 154.018 87.7312 154.185 87.1162 154.185C86.5258 154.185 86.0461 154.055 85.6771 153.797C85.3081 153.526 85.0375 153.176 84.8653 152.745C84.6931 152.315 84.607 151.866 84.607 151.399V146.362C84.607 145.931 84.5885 145.679 84.5516 145.605C84.527 145.531 84.4102 145.482 84.2011 145.458L83.1863 145.365V144.867H84.607V142.45L86.1199 142.137V144.867H89.1272V145.458H86.1199V151.546C86.1199 152.321 86.2244 152.856 86.4335 153.151C86.6549 153.446 86.944 153.594 87.3007 153.594C87.6574 153.594 87.928 153.459 88.1125 153.188C88.3093 152.918 88.4507 152.475 88.5368 151.86L89.4962 152.118ZM93.6238 142.801C93.3286 142.801 93.0826 142.709 92.8858 142.524C92.7013 142.327 92.6091 142.075 92.6091 141.768C92.6091 141.472 92.7013 141.233 92.8858 141.048C93.0826 140.864 93.3286 140.771 93.6238 140.771C93.919 140.771 94.1589 140.864 94.3434 141.048C94.5402 141.233 94.6386 141.472 94.6386 141.768C94.6386 142.075 94.5402 142.327 94.3434 142.524C94.1589 142.709 93.919 142.801 93.6238 142.801ZM91.4652 145.365V144.867H94.3987V152.506C94.3987 152.936 94.4172 153.188 94.4541 153.262C94.491 153.336 94.6078 153.385 94.8046 153.41L95.8194 153.52V154H91.4652V153.52L92.4799 153.41C92.6767 153.385 92.7936 153.336 92.8305 153.262C92.8674 153.188 92.8858 152.936 92.8858 152.506V146.362C92.8858 145.931 92.8674 145.679 92.8305 145.605C92.7936 145.531 92.6767 145.482 92.4799 145.458L91.4652 145.365ZM106.388 149.24V149.609C106.388 150.999 106.038 152.112 105.336 152.948C104.648 153.772 103.664 154.185 102.384 154.185C101.118 154.185 100.134 153.772 99.4324 152.948C98.7436 152.112 98.3992 150.999 98.3992 149.609V149.24C98.3992 147.862 98.7436 146.761 99.4324 145.937C100.121 145.101 101.105 144.683 102.384 144.683C103.664 144.683 104.648 145.101 105.336 145.937C106.038 146.761 106.388 147.862 106.388 149.24ZM104.728 148.871C104.728 147.592 104.525 146.675 104.119 146.122C103.725 145.556 103.147 145.273 102.384 145.273C101.634 145.273 101.056 145.556 100.65 146.122C100.257 146.675 100.06 147.592 100.06 148.871V149.978C100.06 151.269 100.257 152.198 100.65 152.764C101.056 153.317 101.634 153.594 102.384 153.594C103.147 153.594 103.725 153.317 104.119 152.764C104.525 152.198 104.728 151.269 104.728 149.978V148.871ZM119.407 153.52V154H115.053V153.52L116.068 153.41C116.264 153.385 116.381 153.336 116.418 153.262C116.455 153.188 116.474 152.936 116.474 152.506V147.911C116.474 147.001 116.326 146.362 116.031 145.993C115.736 145.611 115.311 145.421 114.758 145.421C114.352 145.421 113.903 145.544 113.411 145.79C112.919 146.036 112.458 146.515 112.027 147.229V152.506C112.027 152.936 112.046 153.188 112.082 153.262C112.119 153.336 112.236 153.385 112.433 153.41L113.448 153.52V154H109.094V153.52L110.108 153.41C110.305 153.385 110.422 153.336 110.459 153.262C110.496 153.188 110.514 152.936 110.514 152.506V146.362C110.514 145.931 110.496 145.679 110.459 145.605C110.422 145.531 110.305 145.482 110.108 145.458L109.094 145.365V144.867H111.935V146.362C112.378 145.771 112.876 145.347 113.429 145.089C113.995 144.818 114.561 144.683 115.127 144.683C116.037 144.683 116.738 144.966 117.23 145.531C117.734 146.085 117.986 146.872 117.986 147.893V152.506C117.986 152.936 118.005 153.188 118.042 153.262C118.079 153.336 118.196 153.385 118.392 153.41L119.407 153.52ZM133.255 146.251L131.189 154H129.989L127.572 146.38L125.155 154H124.012L121.964 146.251C121.877 145.894 121.804 145.679 121.742 145.605C121.693 145.531 121.57 145.482 121.373 145.458L120.432 145.365V144.867H124.62V145.365L123.661 145.458C123.464 145.482 123.353 145.531 123.329 145.605C123.317 145.679 123.36 145.894 123.458 146.251L125.045 152.339L127.388 144.867H128.587L130.967 152.45L132.572 146.251C132.671 145.894 132.708 145.679 132.683 145.605C132.671 145.531 132.566 145.482 132.369 145.458L131.41 145.365V144.867H134.786V145.365L133.845 145.458C133.661 145.482 133.538 145.531 133.476 145.605C133.427 145.679 133.353 145.894 133.255 146.251ZM138.484 142.801C138.189 142.801 137.943 142.709 137.746 142.524C137.561 142.327 137.469 142.075 137.469 141.768C137.469 141.472 137.561 141.233 137.746 141.048C137.943 140.864 138.189 140.771 138.484 140.771C138.779 140.771 139.019 140.864 139.204 141.048C139.4 141.233 139.499 141.472 139.499 141.768C139.499 142.075 139.4 142.327 139.204 142.524C139.019 142.709 138.779 142.801 138.484 142.801ZM136.325 145.365V144.867H139.259V152.506C139.259 152.936 139.277 153.188 139.314 153.262C139.351 153.336 139.468 153.385 139.665 153.41L140.68 153.52V154H136.325V153.52L137.34 153.41C137.537 153.385 137.654 153.336 137.691 153.262C137.728 153.188 137.746 152.936 137.746 152.506V146.362C137.746 145.931 137.728 145.679 137.691 145.605C137.654 145.531 137.537 145.482 137.34 145.458L136.325 145.365ZM152.3 153.539V154H149.459V152.542C149.077 153.108 148.653 153.526 148.186 153.797C147.73 154.055 147.22 154.185 146.654 154.185C145.596 154.185 144.772 153.791 144.182 153.004C143.604 152.204 143.315 151.079 143.315 149.627V149.258C143.315 147.868 143.653 146.761 144.329 145.937C145.018 145.101 145.959 144.683 147.152 144.683C148.026 144.683 148.764 144.953 149.366 145.495V141.841C149.366 141.411 149.348 141.159 149.311 141.085C149.274 141.011 149.157 140.962 148.96 140.937L147.946 140.845V140.347H150.879V152.506C150.879 152.936 150.898 153.188 150.935 153.262C150.971 153.336 151.088 153.385 151.285 153.41L152.3 153.539ZM144.975 150.181C144.975 151.337 145.141 152.186 145.473 152.727C145.818 153.268 146.291 153.539 146.894 153.539C147.288 153.539 147.694 153.416 148.112 153.17C148.53 152.924 148.948 152.426 149.366 151.675V146.399C148.825 145.673 148.118 145.31 147.245 145.31C146.457 145.31 145.879 145.611 145.51 146.214C145.154 146.817 144.975 147.647 144.975 148.705V150.181ZM162.246 151.897C162.024 152.733 161.606 153.323 160.991 153.668C160.389 154.012 159.718 154.185 158.98 154.185C157.615 154.185 156.594 153.772 155.918 152.948C155.241 152.112 154.903 150.999 154.903 149.609V149.24C154.903 147.862 155.229 146.761 155.881 145.937C156.533 145.101 157.48 144.683 158.722 144.683C159.386 144.683 159.989 144.818 160.53 145.089C161.084 145.359 161.52 145.759 161.84 146.288C162.172 146.817 162.338 147.475 162.338 148.262C162.338 148.631 162.301 149.018 162.227 149.424H156.563V149.978C156.563 151.269 156.76 152.198 157.154 152.764C157.56 153.317 158.211 153.594 159.109 153.594C159.675 153.594 160.143 153.446 160.512 153.151C160.893 152.856 161.145 152.346 161.268 151.62L162.246 151.897ZM158.722 145.273C157.996 145.273 157.455 145.55 157.098 146.103C156.742 146.657 156.563 147.567 156.563 148.834H160.715V148.779C160.739 148.619 160.758 148.465 160.77 148.317C160.782 148.157 160.788 148.016 160.788 147.893C160.788 146.971 160.598 146.306 160.216 145.9C159.835 145.482 159.337 145.273 158.722 145.273Z" fill="#180A0B"/>
</svg>
