<svg width="45" height="45" viewBox="0 0 45 45" fill="none" xmlns="http://www.w3.org/2000/svg">
<path fill-rule="evenodd" clip-rule="evenodd" d="M22.5 7.03125H33.75C34.8689 7.03125 35.9419 7.47572 36.7331 8.26689C37.5243 9.05806 37.9687 10.1311 37.9688 11.25V22.5C37.9687 23.6189 37.5243 24.6919 36.7331 25.4831C35.9419 26.2743 34.8689 26.7187 33.75 26.7188H30.9375V22.5C30.9375 20.2622 30.0486 18.1161 28.4662 16.5338C26.8839 14.9514 24.7378 14.0625 22.5 14.0625H18.2812V11.25C18.2812 10.1311 18.7257 9.05806 19.5169 8.26689C20.3081 7.47572 21.3811 7.03125 22.5 7.03125ZM14.0625 14.0625V11.25C14.0625 9.01224 14.9514 6.86612 16.5338 5.28379C18.1161 3.70145 20.2622 2.8125 22.5 2.8125H33.75C35.9878 2.8125 38.1339 3.70145 39.7162 5.28379C41.2986 6.86612 42.1875 9.01224 42.1875 11.25V22.5C42.1875 24.7378 41.2986 26.8839 39.7162 28.4662C38.1339 30.0486 35.9878 30.9375 33.75 30.9375H30.9375V33.75C30.9375 35.9878 30.0486 38.1339 28.4662 39.7162C26.8839 41.2986 24.7378 42.1875 22.5 42.1875H11.25C9.01224 42.1875 6.86612 41.2986 5.28379 39.7162C3.70145 38.1339 2.8125 35.9878 2.8125 33.75V22.5C2.8125 20.2622 3.70145 18.1161 5.28379 16.5338C6.86612 14.9514 9.01224 14.0625 11.25 14.0625H14.0625ZM26.7188 30.9375V33.75C26.7187 34.8689 26.2743 35.9419 25.4831 36.7331C24.6919 37.5243 23.6189 37.9687 22.5 37.9688H11.25C10.1311 37.9687 9.05806 37.5243 8.26689 36.7331C7.47572 35.9419 7.03125 34.8689 7.03125 33.75V22.5C7.03125 21.3811 7.47572 20.3081 8.26689 19.5169C9.05806 18.7257 10.1311 18.2812 11.25 18.2812H14.0625V22.5C14.0625 24.7378 14.9514 26.8839 16.5338 28.4662C18.1161 30.0486 20.2622 30.9375 22.5 30.9375H26.7188ZM26.7188 26.7188H22.5C21.3811 26.7187 20.3081 26.2743 19.5169 25.4831C18.7257 24.6919 18.2812 23.6189 18.2812 22.5V18.2812H22.5C23.6189 18.2812 24.6919 18.7257 25.4831 19.5169C26.2743 20.3081 26.7187 21.3811 26.7188 22.5V26.7188Z" fill="#501B1F"/>
</svg>
